<svg version="1.1" xmlns="http://www.w3.org/2000/svg" xmlns:xlink="http://www.w3.org/1999/xlink" x="0px" y="0px" viewBox="0 0 566.1 69.8" style="enable-background:new 0 0 566.1 69.8;" xml:space="preserve" width="567" height="70">
<style type="text/css">
	.st0{fill:#2D82CC;}
	.st1{fill:#FFFFFF;}
</style>
<path class="st0" d="M75.2,6.6v56.6H56.6l0.6-31.8l-0.5-0.1L46.1,63.2H32.7l-10.4-32h-0.4l0.9,32H5V6.6h24.9l10.2,30.5h0.4l8.9-30.5
	H75.2 M75.2,1.6H49.5c-2.2,0-4.2,1.5-4.8,3.6L40,21L34.7,5c-0.7-2-2.6-3.4-4.7-3.4H5c-2.8,0-5,2.2-5,5v56.6c0,2.8,2.2,5,5,5
	c0,0,0,0,0,0h17.8c2.4,0,4.5-1.8,4.9-4.2l0.2,0.7c0.7,2.1,2.6,3.4,4.8,3.4h13.4c2.2,0,4.1-1.4,4.8-3.4l0.7-2.2v0.6
	c0,2.8,2.1,5,4.9,5.1c0,0,0.1,0,0.1,0h18.6c2.8,0,5-2.2,5-5l0,0V6.6C80.2,3.8,77.9,1.6,75.2,1.6z"/>
<path class="st0" d="M121.6,6.6l22.1,56.6H123l-3-8.3h-18l-2.8,8.3H79.1l22.3-56.6H121.6 M106.6,40.4h9.2l-4.6-14L106.6,40.4
	 M121.6,1.6h-20.2c-2.1,0-3.9,1.3-4.7,3.2L74.4,61.4c-1,2.6,0.3,5.5,2.8,6.5c0.6,0.2,1.2,0.3,1.8,0.3h20.2c2.1,0,4.1-1.4,4.7-3.4
	l1.7-4.9h10.9l1.8,5c0.7,2,2.6,3.3,4.7,3.3h20.7c2.8,0,5-2.2,5-5c0-0.6-0.1-1.2-0.3-1.8L126.3,4.8C125.6,2.9,123.7,1.6,121.6,1.6z"
	/>
<path class="st0" d="M166.9,6.6v56.6h-19.2V6.6H166.9 M166.9,1.6h-19.2c-2.8,0-5,2.2-5,5v56.6c0,2.8,2.2,5,5,5l0,0h19.2
	c2.8,0,5-2.2,5-5l0,0V6.6C171.9,3.8,169.7,1.6,166.9,1.6z"/>
<path class="st0" d="M230.2,6.6v56.6h-19.4l-15.7-27h-0.3l0.8,27h-18.1V6.6h19l16.1,28.7h0.3l-0.8-28.7L230.2,6.6 M230.2,1.6h-18.1
	c-2.8,0-5,2.2-5,5c0,0,0,0.1,0,0.1l0.2,9.1l-6.6-11.7c-0.9-1.6-2.6-2.6-4.4-2.5h-19c-2.8,0-5,2.2-5,5c0,0,0,0,0,0v56.6
	c0,2.8,2.2,5,5,5l0,0h18.1c2.8,0,5-2.2,5-5c0-0.1,0-0.1,0-0.2l-0.2-7.9l6.1,10.5c0.9,1.5,2.5,2.5,4.3,2.5h19.5c2.8,0,5-2.2,5-5V6.6
	C235.2,3.8,233,1.6,230.2,1.6z"/>
<path class="st0" d="M315.9,6.6l-20.5,56.6h-21.1L254.2,6.6h21.5l9.4,35h0.3l9-35L315.9,6.6 M315.9,1.6h-21.6
	c-2.3,0-4.3,1.5-4.9,3.8l-4.4,17.1l-4.6-17.2c-0.6-2.2-2.6-3.7-4.8-3.7h-21.5c-2.8,0-5,2.2-5,5c0,0.6,0.1,1.1,0.3,1.7l20.1,56.6
	c0.7,2,2.6,3.3,4.7,3.3h21.1c2.1,0,4-1.3,4.7-3.3l20.5-56.6c0.9-2.6-0.4-5.5-3-6.4C317,1.7,316.5,1.6,315.9,1.6L315.9,1.6z"/>
<path class="st0" d="M339.1,6.6v56.6h-19.2V6.6H339.1 M339.1,1.6h-19.2c-2.8,0-5,2.2-5,5v56.6c0,2.8,2.2,5,5,5l0,0h19.2
	c2.8,0,5-2.2,5-5l0,0V6.6C344.1,3.8,341.8,1.6,339.1,1.6z"/>
<path class="st0" d="M371.5,5c3.9,0,7.8,0.8,11.4,2.2c3.8,1.4,7.2,3.5,10.2,6.2l-11.8,12.1c-1.3-1.6-2.9-2.8-4.7-3.6
	c-1.6-0.8-3.3-1.2-5-1.2c-1.2,0-2.3,0.2-3.4,0.6c-0.8,0.3-1.3,1.1-1.3,2c0,0.9,0.5,1.6,1.3,1.9c1.4,0.6,2.8,1.2,4.3,1.6
	c2,0.6,4.2,1.4,6.4,2.2c2.2,0.8,4.3,1.9,6.2,3.3c1.9,1.3,3.5,3,4.7,5c1.3,2.2,1.9,4.8,1.8,7.4c0.1,3.1-0.6,6.2-2,8.9
	c-1.3,2.5-3.1,4.6-5.4,6.3c-2.2,1.7-4.8,3-7.5,3.8c-2.8,0.8-5.6,1.2-8.5,1.2c-2.3,0-4.5-0.2-6.8-0.6c-2.2-0.4-4.3-1-6.4-1.8
	c-2-0.7-3.9-1.6-5.8-2.7c-1.7-1-3.4-2.1-4.9-3.5L356,43.7c1.5,1.6,3.3,2.9,5.3,3.8c2.1,1.1,4.5,1.7,6.8,1.7c1,0,2-0.2,2.9-0.6
	c0.8-0.3,1.4-1.2,1.3-2.1c0-0.5-0.1-1-0.4-1.4c-0.4-0.5-1-0.9-1.6-1.2c-1-0.5-2-0.9-3.1-1.3c-1.3-0.5-3-1-4.9-1.7
	c-1.9-0.6-3.7-1.4-5.5-2.3c-1.7-0.8-3.3-1.9-4.7-3.2c-1.4-1.3-2.5-2.9-3.2-4.6c-0.8-2-1.3-4.2-1.2-6.5c-0.1-3.1,0.6-6.2,2.2-9
	c1.4-2.4,3.3-4.5,5.6-6.1c2.3-1.6,4.9-2.8,7.6-3.4C365.8,5.3,368.6,5,371.5,5 M371.5,0c-3.2,0-6.5,0.4-9.6,1.2
	c-3.3,0.8-6.5,2.2-9.3,4.2c-2.9,2-5.2,4.6-7,7.6c-2,3.5-2.9,7.5-2.8,11.5c-0.1,2.9,0.5,5.8,1.6,8.5c1,2.3,2.5,4.4,4.4,6.2
	c0.8,0.8,1.7,1.5,2.6,2.2l-10.7,11.6c-1.9,2-1.7,5.2,0.3,7.1c0,0,0,0,0.1,0.1c1.8,1.5,3.7,2.9,5.7,4.1c2.1,1.2,4.3,2.2,6.5,3
	c2.4,0.9,4.8,1.6,7.3,2c2.5,0.5,5.1,0.7,7.6,0.7c3.4,0,6.7-0.5,9.9-1.4c3.3-1,6.4-2.5,9.1-4.6c2.8-2.1,5.1-4.8,6.7-7.9
	c1.8-3.5,2.7-7.4,2.6-11.3c0.1-3.5-0.8-7-2.6-10c-1.6-2.5-3.6-4.7-6-6.4c-0.5-0.3-0.9-0.6-1.4-1l10.1-10.3c1.9-2,1.9-5.1-0.1-7.1
	c0,0-0.1-0.1-0.1-0.1c-3.4-3.2-7.5-5.6-11.9-7.3C380.4,0.9,376,0,371.5,0L371.5,0z"/>
<path class="st0" d="M451.2,6.6V41c0,3.2-0.6,6.4-1.7,9.4c-1.1,2.9-2.8,5.5-5.1,7.6c-2.4,2.2-5.3,3.9-8.4,5
	c-3.7,1.3-7.7,1.9-11.6,1.8c-3.9,0.1-7.8-0.5-11.6-1.8c-3.1-1.1-5.8-2.8-8.2-5c-2.2-2.1-3.9-4.7-4.9-7.6c-1.1-3-1.6-6.2-1.6-9.4V6.6
	h19v32.3c-0.1,2.3,0.6,4.6,2,6.4c3.1,3,8,3,11.1,0c1.4-1.8,2.1-4.1,2-6.4V6.6H451.2 M451.3,1.6h-19c-2.8,0-5,2.2-5,5v32.3
	c0.1,1.1-0.2,2.2-0.8,3.1c-0.1,0.2-0.5,0.5-1.8,0.5s-1.6-0.4-1.8-0.5c-0.6-0.9-0.8-2-0.8-3.1V6.6c0-2.8-2.2-5-5-5h-19
	c-2.8,0-5,2.2-5,5V41c0,3.8,0.6,7.6,1.9,11.1c1.3,3.6,3.4,6.8,6.1,9.4c2.8,2.7,6.2,4.8,9.9,6.1c4.3,1.5,8.8,2.2,13.3,2.2
	c4.5,0.1,9.1-0.7,13.4-2.2c3.7-1.3,7.2-3.4,10.1-6.1c2.8-2.6,4.9-5.8,6.3-9.3c1.4-3.6,2-7.4,2-11.2V6.6C456.2,3.8,454,1.6,451.3,1.6
	L451.3,1.6z"/>
<path class="st0" d="M497,6.6l22.1,56.6h-20.7l-3-8.3h-18l-2.8,8.3h-20.1l22.3-56.6H497 M482,40.4h9.2l-4.6-14L482,40.4 M497,1.6
	h-20.2c-2.1,0-3.9,1.3-4.7,3.2l-22.3,56.6c-1,2.6,0.3,5.5,2.8,6.5c0.6,0.2,1.2,0.3,1.8,0.3h20.2c2.1,0,4-1.4,4.7-3.4l1.7-4.9h10.9
	l1.8,5c0.7,2,2.6,3.3,4.7,3.3h20.7c2.8,0,5-2.2,5-5c0-0.6-0.1-1.2-0.3-1.8L501.6,4.8C500.9,2.9,499.1,1.6,497,1.6z"/>
<path class="st0" d="M542.3,6.6v40.2h18.8v16.4h-38V6.6H542.3 M542.3,1.6h-19.2c-2.8,0-5,2.2-5,5v56.6c0,2.8,2.2,5,5,5l0,0h38
	c2.8,0,5-2.2,5-5l0,0V46.8c0-2.8-2.2-5-5-5h-13.8V6.6C547.3,3.8,545,1.6,542.3,1.6z"/>
<path class="st1" d="M21.9,31.2l0.9,32H5V6.6h24.9l10.2,30.5h0.4l8.9-30.5h25.7v56.6H56.6l0.6-31.8l-0.5-0.1L46.1,63.2H32.7
	l-10.4-32L21.9,31.2z"/>
<path class="st1" d="M101.4,6.6h20.2l22.1,56.6H123l-3-8.3h-18l-2.8,8.3H79.1L101.4,6.6z M111.2,26.4l-4.6,14h9.2L111.2,26.4z"/>
<path class="st1" d="M147.7,6.6h19.2v56.6h-19.2V6.6z"/>
<path class="st1" d="M177.5,6.6h19l16.1,28.7h0.3l-0.8-28.7h18.1v56.6h-19.4l-15.7-27h-0.3l0.8,27h-18.1V6.6z"/>
<path class="st1" d="M254.2,6.6h21.5l9.4,35h0.3l9-35h21.5l-20.5,56.6h-21.1L254.2,6.6z"/>
<path class="st1" d="M319.9,6.6h19.2v56.6h-19.2V6.6z"/>
<path class="st1" d="M368.2,64.8c-2.3,0-4.5-0.2-6.8-0.6c-2.2-0.4-4.3-1-6.4-1.8c-2-0.7-3.9-1.6-5.8-2.7c-1.7-1-3.4-2.1-4.9-3.5
	L356,43.7c1.5,1.6,3.3,2.9,5.3,3.8c2.1,1.1,4.5,1.7,6.8,1.7c1,0,2-0.2,2.9-0.6c0.8-0.3,1.4-1.2,1.3-2.1c0-0.5-0.1-1-0.4-1.4
	c-0.4-0.5-1-0.9-1.6-1.2c-1-0.5-2-0.9-3.1-1.3c-1.3-0.5-3-1-4.9-1.7c-1.9-0.6-3.7-1.4-5.5-2.3c-1.7-0.8-3.3-1.9-4.7-3.2
	c-1.4-1.3-2.5-2.9-3.2-4.6c-0.8-2-1.3-4.2-1.2-6.5c-0.1-3.1,0.6-6.2,2.2-9c1.4-2.4,3.3-4.5,5.6-6.1c2.3-1.6,4.9-2.8,7.6-3.4
	c2.7-0.7,5.6-1,8.4-1c3.9,0,7.8,0.8,11.4,2.2c3.8,1.4,7.2,3.5,10.2,6.2l-11.8,12.1c-1.3-1.6-2.9-2.8-4.7-3.6c-1.6-0.8-3.3-1.2-5-1.2
	c-1.2,0-2.3,0.2-3.4,0.6c-0.8,0.3-1.3,1.1-1.3,2c0,0.9,0.5,1.6,1.3,1.9c1.4,0.6,2.8,1.2,4.3,1.6c2,0.6,4.2,1.4,6.4,2.2
	c2.2,0.8,4.3,1.9,6.2,3.3c1.9,1.3,3.5,3,4.7,5c1.3,2.2,1.9,4.8,1.8,7.4c0.1,3.1-0.6,6.2-2,8.9c-1.3,2.5-3.1,4.6-5.4,6.3
	c-2.2,1.7-4.8,3-7.5,3.8C374,64.5,371.1,64.9,368.2,64.8z"/>
<path class="st1" d="M424.4,64.8c-3.9,0.1-7.8-0.5-11.6-1.8c-3.1-1.1-5.8-2.8-8.2-5c-2.2-2.1-3.9-4.7-4.9-7.6
	c-1.1-3-1.6-6.2-1.6-9.4V6.6h19v32.3c-0.1,2.3,0.6,4.6,2,6.4c3.1,3,8,3,11.1,0c1.4-1.8,2.1-4.1,2-6.4V6.6h19V41
	c0,3.2-0.6,6.4-1.7,9.4c-1.1,2.9-2.9,5.5-5.2,7.6c-2.4,2.2-5.3,3.9-8.4,5C432.3,64.3,428.4,64.9,424.4,64.8z"/>
<path class="st1" d="M476.8,6.6H497l22.1,56.6h-20.7l-3-8.3h-18l-2.8,8.3h-20.1L476.8,6.6z M486.6,26.4l-4.6,14h9.2L486.6,26.4z"/>
<path class="st1" d="M523.1,6.6h19.2v40.2h18.8v16.4h-38V6.6z"/>
</svg>
