<svg xmlns="http://www.w3.org/2000/svg" viewBox="0 0 251.12 69.84"><defs><style>.cls-1{fill:#2d82cc;}.cls-2{fill:#fff;}</style></defs><g id="レイヤー_2" data-name="レイヤー 2"><g id="セクションタイトル"><path class="cls-1" d="M57.72,6.6V63.24H38.28L22.6,36.2h-.32l.8,27H5V6.6H24L40.12,35.32h.32L39.64,6.6H57.72m0-5H39.64a5,5,0,0,0-5,5.14l.26,9.1L28.32,4.15A5,5,0,0,0,24,1.6H5a5,5,0,0,0-5,5V63.24a5,5,0,0,0,5,5H23.08a5,5,0,0,0,5-5.15l-.24-7.88L34,65.75a5,5,0,0,0,4.33,2.49H57.72a5,5,0,0,0,5-5V6.6a5,5,0,0,0-5-5Z"/><path class="cls-1" d="M107.24,6.6V22.44h-21v4.88H106v14.8H86.2V47.4h22.4V63.24H68.28V6.6h39m0-5h-39a5,5,0,0,0-5,5V63.24a5,5,0,0,0,5,5H108.6a5,5,0,0,0,5-5V47.4A5,5,0,0,0,110.89,43a4.57,4.57,0,0,0,.07-.83V27.32a5,5,0,0,0-.18-1.35,5,5,0,0,0,1.46-3.53V6.6a5,5,0,0,0-5-5Z"/><path class="cls-1" d="M197.4,6.6,181.64,63.24h-19.2l-8-32h-.32l-8.24,32h-19.2L111.24,6.6H131.4l6.08,31.84h.32L144.36,6.6h19.92l7.12,31.84h.32L177.88,6.6H197.4m0-5H177.88A5,5,0,0,0,173,5.65l-1.75,9.06-2.06-9.2a5,5,0,0,0-4.88-3.91H144.36a5,5,0,0,0-4.9,4l-1.64,8-1.51-7.9A5,5,0,0,0,131.4,1.6H111.24a5,5,0,0,0-4.83,6.32l15.44,56.64a5,5,0,0,0,4.83,3.68h19.2a5,5,0,0,0,4.84-3.75l3.49-13.55,3.38,13.51a5,5,0,0,0,4.85,3.79h19.2a5,5,0,0,0,4.82-3.66L202.22,7.94A5,5,0,0,0,197.4,1.6Z"/><path class="cls-1" d="M224.52,5a32.55,32.55,0,0,1,11.4,2.16,30.61,30.61,0,0,1,10.2,6.24L234.28,25.48a12.47,12.47,0,0,0-4.72-3.64,12.61,12.61,0,0,0-5-1.24,8,8,0,0,0-3.36.6,2,2,0,0,0-1.28,2,2.06,2.06,0,0,0,1.32,1.92,35.75,35.75,0,0,0,4.28,1.6c2,.64,4.16,1.39,6.4,2.24a27.14,27.14,0,0,1,6.2,3.32,17.56,17.56,0,0,1,4.68,5,13.76,13.76,0,0,1,1.84,7.36,18.59,18.59,0,0,1-2,8.92,19.33,19.33,0,0,1-5.36,6.32,23.4,23.4,0,0,1-7.48,3.76,29.45,29.45,0,0,1-8.48,1.24,37.85,37.85,0,0,1-6.76-.6,35.75,35.75,0,0,1-6.4-1.75,40,40,0,0,1-5.8-2.7,28.81,28.81,0,0,1-4.88-3.47L209,43.72a18.47,18.47,0,0,0,5.32,3.84,15,15,0,0,0,6.84,1.68,7.49,7.49,0,0,0,2.92-.56,2.07,2.07,0,0,0,1.32-2.08,2.18,2.18,0,0,0-.44-1.37,5.22,5.22,0,0,0-1.56-1.16,25.8,25.8,0,0,0-3.08-1.32q-2-.72-4.92-1.68a42.12,42.12,0,0,1-5.52-2.29,19.51,19.51,0,0,1-4.68-3.24A14.33,14.33,0,0,1,202,30.93a15.73,15.73,0,0,1-1.2-6.45,17.49,17.49,0,0,1,2.16-9,18.88,18.88,0,0,1,5.56-6.05A22.71,22.71,0,0,1,216.12,6a35.25,35.25,0,0,1,8.4-1m0-5a40.24,40.24,0,0,0-9.6,1.19,27.86,27.86,0,0,0-9.3,4.15,24.12,24.12,0,0,0-7,7.63,22.58,22.58,0,0,0-2.84,11.51A20.84,20.84,0,0,0,197.39,33a19.32,19.32,0,0,0,4.38,6.2,21.92,21.92,0,0,0,2.64,2.15L193.72,52.94a5,5,0,0,0,.37,7.13,34.19,34.19,0,0,0,5.71,4.06,45.25,45.25,0,0,0,6.52,3,42.17,42.17,0,0,0,7.27,2,43.44,43.44,0,0,0,7.65.68,34.75,34.75,0,0,0,9.91-1.45,28.18,28.18,0,0,0,9.07-4.57A24.22,24.22,0,0,0,247,55.88,23.54,23.54,0,0,0,249.6,44.6a18.65,18.65,0,0,0-2.59-10,22.85,22.85,0,0,0-6-6.42c-.47-.33-.94-.65-1.42-1L249.69,16.9a5,5,0,0,0-.17-7.17,35.74,35.74,0,0,0-11.86-7.26A37.68,37.68,0,0,0,224.52,0Z"/><path class="cls-2" d="M5,6.6H24L40.12,35.32h.32L39.64,6.6H57.72V63.24H38.28L22.6,36.2h-.32l.8,27H5Z"/><path class="cls-2" d="M68.28,6.6h39V22.44h-21v4.88H106v14.8H86.2V47.4h22.4V63.24H68.28Z"/><path class="cls-2" d="M145.88,63.24h-19.2L111.24,6.6H131.4l6.08,31.84h.32L144.36,6.6h19.92l7.12,31.84h.32L177.88,6.6H197.4L181.64,63.24h-19.2l-8-32h-.32Z"/><path class="cls-2" d="M221.24,64.84a37.85,37.85,0,0,1-6.76-.6,35.75,35.75,0,0,1-6.4-1.75,40,40,0,0,1-5.8-2.7,28.81,28.81,0,0,1-4.88-3.47L209,43.72a18.47,18.47,0,0,0,5.32,3.84,15,15,0,0,0,6.84,1.68,7.49,7.49,0,0,0,2.92-.56,2.07,2.07,0,0,0,1.32-2.08,2.18,2.18,0,0,0-.44-1.37,5.22,5.22,0,0,0-1.56-1.16,25.8,25.8,0,0,0-3.08-1.32q-2-.72-4.92-1.68a42.12,42.12,0,0,1-5.52-2.29,19.51,19.51,0,0,1-4.68-3.24A14.33,14.33,0,0,1,202,30.93a15.73,15.73,0,0,1-1.2-6.45,17.49,17.49,0,0,1,2.16-9,18.88,18.88,0,0,1,5.56-6.05A22.71,22.71,0,0,1,216.12,6a35.25,35.25,0,0,1,8.4-1,32.55,32.55,0,0,1,11.4,2.16,30.61,30.61,0,0,1,10.2,6.24L234.28,25.48a12.47,12.47,0,0,0-4.72-3.64,12.61,12.61,0,0,0-5-1.24,8,8,0,0,0-3.36.6,2,2,0,0,0-1.28,2,2.06,2.06,0,0,0,1.32,1.92,35.75,35.75,0,0,0,4.28,1.6c2,.64,4.16,1.39,6.4,2.24a27.14,27.14,0,0,1,6.2,3.32,17.56,17.56,0,0,1,4.68,5,13.76,13.76,0,0,1,1.84,7.36,18.59,18.59,0,0,1-2,8.92,19.33,19.33,0,0,1-5.36,6.32,23.4,23.4,0,0,1-7.48,3.76A29.45,29.45,0,0,1,221.24,64.84Z"/></g></g></svg>