<svg version="1.1" xmlns="http://www.w3.org/2000/svg" xmlns:xlink="http://www.w3.org/1999/xlink" x="0px" y="0px" viewBox="0 0 556.5 69.8" style="enable-background:new 0 0 556.5 69.8;" xml:space="preserve" width="557" height="70">
<style type="text/css">
	.st0{fill:#2D82CC;}
	.st1{fill:#FFFFFF;}
</style>
<path class="st0" d="M51.9,6.6v16.1H38v40.6H19V22.7H5V6.6H51.9 M51.9,1.6H5c-2.8,0-5,2.2-5,5v16.1c0,2.8,2.2,5,5,5h8.9v35.6
	c0,2.8,2.2,5,5,5c0,0,0,0,0,0H38c2.8,0,5-2.2,5-5l0,0V27.7h8.9c2.8,0,5-2.2,5-5V6.6C56.9,3.8,54.7,1.6,51.9,1.6L51.9,1.6z"/>
<path class="st0" d="M111.3,6.6v56.6h-19V41.7H76.8v21.5h-19V6.6h19v19.2h15.4V6.6H111.3 M111.3,1.6H92.2c-2.8,0-5,2.2-5,5v14.2
	h-5.5V6.6c0-2.8-2.2-5-5-5h-19c-2.8,0-5,2.2-5,5v56.6c0,2.8,2.2,5,5,5h0h19c2.8,0,5-2.2,5-5l0,0V46.7h5.5v16.5c0,2.8,2.2,5,5,5
	c0,0,0,0,0,0h19c2.8,0,5-2.2,5-5l0,0V6.6c0-2.8-2.2-5-5-5H111.3z"/>
<path class="st0" d="M160.8,6.6v15.8h-21v4.9h19.8v14.8h-19.8v5.3h22.4v15.8h-40.3V6.6H160.8 M160.9,1.6h-39c-2.8,0-5,2.2-5,5v56.6
	c0,2.8,2.2,5,5,5c0,0,0,0,0,0h40.3c2.8,0,5-2.2,5-5l0,0V47.4c0-1.9-1.1-3.6-2.7-4.4c0-0.3,0.1-0.6,0.1-0.8V27.3
	c0-0.5-0.1-0.9-0.2-1.4c0.9-0.9,1.5-2.2,1.5-3.5V6.6C165.8,3.8,163.6,1.6,160.9,1.6L160.9,1.6z"/>
<path class="st0" d="M240.3,6.6v56.6h-18.6l0.6-31.8l-0.5-0.1l-10.6,31.9h-13.4l-10.4-32H187l0.9,32h-17.8V6.6H195l10.2,30.5h0.4
	l8.9-30.5H240.3 M240.3,1.6h-25.7c-2.2,0-4.2,1.5-4.8,3.6L205.1,21l-5.4-16c-0.7-2-2.6-3.4-4.8-3.4h-24.9c-2.8,0-5,2.2-5,5v56.6
	c0,2.8,2.2,5,5,5l0,0h17.8c2.4,0,4.5-1.8,4.9-4.2l0.2,0.7c0.7,2.1,2.6,3.5,4.8,3.4h13.4c2.2,0,4.1-1.4,4.8-3.4l0.8-2.2v0.6
	c0,2.8,2.1,5,4.9,5.1c0,0,0.1,0,0.1,0h18.6c2.8,0,5-2.2,5-5V6.6C245.3,3.8,243.1,1.6,240.3,1.6L240.3,1.6z"/>
<path class="st0" d="M289.7,6.6v15.8h-21v4.9h19.8v14.8h-19.8v5.3h22.4v15.8h-40.3V6.6H289.7 M289.8,1.6h-39c-2.8,0-5,2.2-5,5v56.6
	c0,2.8,2.2,5,5,5l0,0h40.3c2.8,0,5-2.2,5-5l0,0V47.4c0-1.9-1.1-3.6-2.7-4.4c0-0.3,0.1-0.6,0.1-0.8V27.3c0-0.5-0.1-0.9-0.2-1.4
	c0.9-0.9,1.5-2.2,1.5-3.5V6.6C294.7,3.8,292.5,1.6,289.8,1.6L289.8,1.6z"/>
<path class="st0" d="M340.8,5c3.9,0,7.8,0.8,11.4,2.2c3.8,1.4,7.2,3.5,10.2,6.2l-11.8,12.1c-1.3-1.6-2.9-2.8-4.7-3.6
	c-1.6-0.8-3.3-1.2-5-1.2c-1.2,0-2.3,0.2-3.4,0.6c-0.8,0.3-1.3,1.1-1.3,2c0,0.9,0.5,1.6,1.3,1.9c1.4,0.6,2.8,1.2,4.3,1.6
	c2,0.6,4.2,1.4,6.4,2.2c2.2,0.8,4.3,1.9,6.2,3.3c1.9,1.3,3.5,3,4.7,5c1.3,2.2,1.9,4.8,1.8,7.4c0.1,3.1-0.6,6.2-2,8.9
	c-1.3,2.5-3.1,4.6-5.4,6.3c-2.3,1.7-4.9,3-7.6,3.7c-2.8,0.8-5.6,1.2-8.5,1.2c-2.3,0-4.5-0.2-6.8-0.6c-2.2-0.4-4.3-1-6.4-1.8
	c-2-0.7-3.9-1.6-5.8-2.7c-1.7-1-3.4-2.1-4.9-3.5l11.6-12.6c1.5,1.6,3.3,2.9,5.3,3.8c2.1,1.1,4.5,1.7,6.8,1.7c1,0,2-0.2,2.9-0.6
	c0.8-0.3,1.4-1.2,1.3-2.1c0-0.5-0.1-1-0.4-1.4c-0.4-0.5-1-0.9-1.6-1.2c-1-0.5-2-0.9-3.1-1.3c-1.3-0.5-3-1-4.9-1.7
	c-1.9-0.6-3.7-1.4-5.5-2.3c-1.7-0.8-3.3-1.9-4.7-3.2c-1.4-1.3-2.5-2.9-3.2-4.6c-0.8-2-1.3-4.2-1.2-6.5c-0.1-3.1,0.6-6.2,2.2-9
	c1.4-2.4,3.3-4.5,5.6-6.1c2.3-1.6,4.9-2.8,7.7-3.4C335.2,5.3,338,5,340.8,5 M340.8,0c-3.2,0-6.5,0.4-9.6,1.2
	c-3.3,0.8-6.5,2.2-9.3,4.2c-2.9,2-5.2,4.6-7,7.6c-2,3.5-2.9,7.5-2.8,11.5c-0.1,2.9,0.5,5.8,1.6,8.5c1,2.3,2.5,4.4,4.4,6.2
	c0.8,0.8,1.7,1.5,2.6,2.2L310,52.9c-1.9,2-1.7,5.2,0.3,7.1c0,0,0,0,0.1,0.1c1.8,1.5,3.7,2.9,5.7,4.1c2.1,1.2,4.3,2.2,6.5,3
	c2.4,0.9,4.8,1.6,7.3,2c2.5,0.5,5.1,0.7,7.6,0.7c3.4,0,6.7-0.5,9.9-1.4c3.3-1,6.4-2.5,9.1-4.6c2.8-2.1,5.1-4.8,6.7-7.9
	c1.8-3.5,2.7-7.4,2.6-11.3c0.1-3.5-0.8-7-2.6-10c-1.6-2.5-3.6-4.7-6-6.4c-0.5-0.3-0.9-0.6-1.4-1L366,16.9c1.9-2,1.9-5.1-0.1-7.1
	c0,0-0.1-0.1-0.1-0.1c-3.4-3.2-7.5-5.6-11.8-7.3C349.8,0.9,345.3,0,340.8,0z"/>
<path class="st0" d="M397.2,5c4.2,0,8.5,0.7,12.5,2.1c3.7,1.3,7.1,3.3,10,5.9c2.9,2.6,5.1,5.8,6.6,9.3c1.6,3.9,2.5,8.1,2.4,12.3
	c0.1,4.3-0.8,8.5-2.4,12.4c-1.5,3.6-3.8,6.9-6.6,9.6c-2.9,2.7-6.3,4.8-10,6.1c-8.1,2.9-16.9,2.9-25,0c-3.7-1.3-7.1-3.4-10-6.1
	c-2.8-2.7-5-6-6.5-9.6c-1.6-3.9-2.5-8.1-2.4-12.4c-0.1-4.2,0.8-8.4,2.4-12.3c1.5-3.5,3.8-6.7,6.6-9.3c2.9-2.6,6.3-4.6,10-5.9
	C388.8,5.7,393,5,397.2,5 M397.2,47.2c3,0,6-1.2,8-3.5c1-1.2,1.8-2.5,2.4-4c0.6-1.6,0.9-3.4,0.8-5.1c0-1.7-0.3-3.4-0.8-5
	c-0.5-1.4-1.3-2.7-2.4-3.8c-2.1-2.2-5-3.4-8-3.3c-1.5,0-3.1,0.3-4.5,0.9c-1.3,0.6-2.6,1.4-3.6,2.4c-1,1.1-1.8,2.4-2.3,3.8
	c-0.6,1.6-0.9,3.3-0.8,5c0,1.7,0.3,3.5,0.8,5.1c0.5,1.5,1.3,2.8,2.3,4c1,1.1,2.2,2,3.6,2.6C394.2,46.9,395.7,47.3,397.2,47.2
	 M397.2,0c-4.8,0-9.6,0.8-14.2,2.4c-4.3,1.5-8.3,3.9-11.6,6.9c-3.3,3.1-6,6.8-7.8,11c-1.9,4.5-2.9,9.4-2.8,14.3
	c-0.1,4.9,0.9,9.8,2.8,14.4c1.8,4.2,4.4,8.1,7.8,11.2c3.4,3.1,7.3,5.6,11.6,7.1c9.2,3.3,19.3,3.3,28.5,0c4.3-1.6,8.3-4,11.7-7.2
	c3.4-3.1,6.1-7,7.9-11.2c1.9-4.5,2.9-9.4,2.8-14.4c0.1-4.9-0.9-9.8-2.8-14.3c-1.8-4.2-4.5-7.9-7.9-11c-3.4-3-7.4-5.4-11.6-6.9
	C406.9,0.8,402.1,0,397.2,0z M397.2,42.2c-0.8,0-1.7-0.2-2.5-0.5c-0.7-0.3-1.3-0.8-1.8-1.3c-0.6-0.7-1.1-1.5-1.4-2.4
	c-0.4-1.1-0.6-2.3-0.6-3.4c0-1.1,0.2-2.2,0.5-3.3c0.3-0.8,0.7-1.5,1.2-2.1c0.5-0.6,1.2-1,1.9-1.3c0.8-0.3,1.7-0.5,2.5-0.5
	c1.7,0,3.3,0.6,4.4,1.8c0.6,0.6,1,1.3,1.2,2.1c0.4,1.1,0.5,2.2,0.5,3.3c0,1.2-0.1,2.3-0.5,3.4c-0.3,0.9-0.8,1.7-1.4,2.3
	C400.4,41.6,398.9,42.3,397.2,42.2L397.2,42.2z"/>
<path class="st0" d="M489.5,6.6v56.6H470l-15.7-27H454l0.8,27h-18V6.6h19l16.2,28.7h0.3l-0.8-28.7H489.5 M489.5,1.6h-18.1
	c-2.8,0-5,2.2-5,5c0,0,0,0.1,0,0.1l0.2,9.1l-6.6-11.7c-0.9-1.6-2.5-2.5-4.4-2.5h-19c-2.8,0-5,2.2-5,5c0,0,0,0,0,0v56.6
	c0,2.8,2.2,5,5,5l0,0h18.1c2.8,0,5-2.2,5-5c0-0.1,0-0.1,0-0.2l-0.2-7.9l6.1,10.5c0.9,1.5,2.5,2.5,4.3,2.5h19.4c2.8,0,5-2.2,5-5V6.6
	C494.4,3.8,492.2,1.6,489.5,1.6L489.5,1.6z"/>
<path class="st0" d="M528.2,5c4.3,0,8.6,0.7,12.6,2.2c3.6,1.2,7,3.3,9.7,5.9l-11.1,13.4c-1.2-1.4-2.6-2.5-4.2-3.3
	c-1.8-0.9-3.9-1.3-5.9-1.2c-1.6,0-3.1,0.3-4.5,0.9c-1.5,0.6-2.8,1.5-3.9,2.6c-2.5,2.5-3.8,5.9-3.8,9.5c-0.2,3.5,0.9,6.9,3.1,9.6
	c2.1,2.5,5.4,3.7,9.9,3.7c0.8,0,1.7-0.1,2.5-0.2c0.7-0.1,1.4-0.3,2-0.6v-4.3h-9.1v-15h26v31c-1.5,0.9-3,1.6-4.6,2.2
	c-1.8,0.7-3.7,1.3-5.5,1.7c-2,0.5-4.1,0.9-6.1,1.2c-2.1,0.3-4.3,0.4-6.4,0.4c-4.2,0-8.4-0.7-12.4-2.1c-3.7-1.3-7.1-3.4-9.9-6
	c-2.8-2.6-5.1-5.8-6.6-9.4c-1.6-3.9-2.5-8.1-2.4-12.3c-0.1-4.2,0.8-8.4,2.4-12.3c1.5-3.6,3.7-6.8,6.6-9.4c2.8-2.6,6.1-4.7,9.8-6
	C520,5.7,524.1,5,528.2,5 M528.2,0c-4.7,0-9.4,0.8-13.8,2.4c-4.2,1.6-8.1,4-11.4,7.1c-3.3,3.1-5.9,6.9-7.7,11.1
	c-1.9,4.5-2.9,9.4-2.8,14.3c-0.1,4.9,0.9,9.8,2.8,14.3c1.8,4.2,4.4,8,7.8,11.1c3.4,3.1,7.3,5.5,11.6,7c4.5,1.6,9.3,2.4,14.1,2.4
	c2.4,0,4.7-0.2,7.1-0.5c2.2-0.3,4.5-0.7,6.6-1.3c2.1-0.5,4.1-1.1,6.1-1.9c1.9-0.7,3.7-1.6,5.4-2.6c1.5-0.9,2.4-2.5,2.4-4.3v-31
	c0-2.8-2.2-5-5-5h-2.9l5.8-6.9c1.7-2,1.5-4.9-0.3-6.7c-3.3-3.2-7.2-5.6-11.5-7C537.9,0.8,533.1,0,528.2,0z"/>
<path class="st1" d="M38,63.2H19V22.7H5V6.6h46.9v16.1H38V63.2z"/>
<path class="st1" d="M92.3,41.7H76.8v21.5h-19V6.6h19v19.2h15.4V6.6h19.1v56.6h-19L92.3,41.7z"/>
<path class="st1" d="M121.9,6.6h39v15.8h-21v4.9h19.8v14.8h-19.8v5.3h22.4v15.8h-40.3V6.6z"/>
<path class="st1" d="M187,31.2l0.9,32h-17.8V6.6H195l10.2,30.5h0.4l8.9-30.5h25.7v56.6h-18.6l0.6-31.8l-0.5-0.1l-10.6,31.9h-13.4
	l-10.4-32L187,31.2z"/>
<path class="st1" d="M250.8,6.6h39v15.8h-21v4.9h19.8v14.8h-19.8v5.3h22.4v15.8h-40.3V6.6z"/>
<path class="st1" d="M337.6,64.8c-2.3,0-4.5-0.2-6.8-0.6c-2.2-0.4-4.3-1-6.4-1.8c-2-0.7-3.9-1.6-5.8-2.7c-1.7-1-3.4-2.1-4.9-3.5
	l11.6-12.6c1.5,1.6,3.3,2.9,5.3,3.8c2.1,1.1,4.5,1.7,6.8,1.7c1,0,2-0.2,2.9-0.6c0.8-0.3,1.4-1.2,1.3-2.1c0-0.5-0.1-1-0.4-1.4
	c-0.4-0.5-1-0.9-1.6-1.2c-1-0.5-2-0.9-3.1-1.3c-1.3-0.5-3-1-4.9-1.7c-1.9-0.6-3.7-1.4-5.5-2.3c-1.7-0.8-3.3-1.9-4.7-3.2
	c-1.4-1.3-2.5-2.9-3.2-4.6c-0.8-2-1.3-4.2-1.2-6.5c-0.1-3.1,0.6-6.2,2.2-9c1.4-2.4,3.3-4.5,5.6-6.1c2.3-1.6,4.9-2.8,7.6-3.4
	c2.7-0.7,5.6-1,8.4-1c3.9,0,7.8,0.8,11.4,2.2c3.8,1.4,7.2,3.5,10.2,6.2l-11.8,12.1c-1.3-1.6-2.9-2.8-4.7-3.6c-1.6-0.8-3.3-1.2-5-1.2
	c-1.2,0-2.3,0.2-3.4,0.6c-0.8,0.3-1.3,1.1-1.3,2c0,0.9,0.5,1.6,1.3,1.9c1.4,0.6,2.8,1.2,4.3,1.6c2,0.6,4.2,1.4,6.4,2.2
	c2.2,0.8,4.3,1.9,6.2,3.3c1.9,1.3,3.5,3,4.7,5c1.3,2.2,1.9,4.8,1.8,7.4c0.1,3.1-0.6,6.2-2,8.9c-1.3,2.5-3.1,4.6-5.4,6.3
	c-2.3,1.7-4.9,3-7.6,3.7C343.3,64.4,340.4,64.8,337.6,64.8z"/>
<path class="st1" d="M365.8,34.6c-0.1-4.2,0.8-8.4,2.4-12.3c1.5-3.5,3.8-6.7,6.6-9.3c2.9-2.6,6.3-4.6,10-5.9c8.1-2.8,16.9-2.8,25,0
	c3.7,1.3,7.1,3.3,10,5.9c2.9,2.6,5.1,5.8,6.6,9.3c1.6,3.9,2.5,8.1,2.4,12.3c0.1,4.3-0.8,8.5-2.4,12.4c-1.5,3.6-3.8,6.9-6.6,9.6
	c-2.9,2.7-6.3,4.8-10,6.1c-8.1,2.9-16.9,2.9-25,0c-3.7-1.3-7.1-3.4-10-6.1c-2.8-2.7-5.1-6-6.6-9.6C366.6,43.1,365.7,38.9,365.8,34.6
	z M386,34.6c0,1.7,0.3,3.5,0.8,5.1c0.5,1.5,1.3,2.8,2.3,4c1,1.1,2.2,2,3.6,2.6c1.4,0.6,2.9,0.9,4.5,0.9c3,0,6-1.2,8-3.5
	c1-1.2,1.8-2.5,2.4-4c0.6-1.6,0.9-3.4,0.8-5.1c0-1.7-0.3-3.4-0.8-5c-0.5-1.4-1.3-2.7-2.4-3.8c-2.1-2.2-5-3.4-8-3.3
	c-1.5,0-3.1,0.3-4.5,0.9c-1.3,0.6-2.6,1.4-3.6,2.4c-1,1.1-1.8,2.4-2.3,3.8C386.3,31.2,386,32.9,386,34.6L386,34.6z"/>
<path class="st1" d="M436.8,6.6h19l16.2,28.7h0.3l-0.8-28.7h18.1v56.6H470l-15.7-27H454l0.8,27h-18V6.6z"/>
<path class="st1" d="M528.8,64.7c-4.2,0-8.4-0.7-12.4-2.1c-3.7-1.3-7.1-3.4-9.9-6c-2.8-2.6-5.1-5.8-6.6-9.4
	c-1.6-3.9-2.5-8.1-2.4-12.3c-0.1-4.2,0.8-8.4,2.4-12.3c1.5-3.6,3.7-6.8,6.6-9.4c2.8-2.6,6.1-4.7,9.8-6c3.8-1.4,7.9-2.1,12-2.1
	c4.3,0,8.6,0.7,12.6,2.2c3.6,1.2,7,3.3,9.7,5.9l-11.1,13.4c-1.2-1.4-2.6-2.5-4.2-3.3c-1.8-0.9-3.9-1.3-5.9-1.2
	c-1.6,0-3.1,0.3-4.5,0.9c-1.5,0.6-2.8,1.5-3.9,2.6c-2.5,2.5-3.8,5.9-3.8,9.5c-0.2,3.5,0.9,6.9,3.1,9.6c2.1,2.5,5.4,3.7,9.9,3.7
	c0.8,0,1.7-0.1,2.5-0.2c0.7-0.1,1.4-0.3,2-0.6v-4.3h-9.1v-15h26v31c-1.5,0.9-3,1.6-4.6,2.2c-1.8,0.7-3.7,1.3-5.5,1.7
	c-2,0.5-4.1,0.9-6.1,1.2C533.1,64.5,531,64.7,528.8,64.7z"/>
</svg>
