<svg version="1.1" xmlns="http://www.w3.org/2000/svg" xmlns:xlink="http://www.w3.org/1999/xlink" x="0px" y="0px" viewBox="0 0 738.7 165.6" style="enable-background:new 0 0 738.7 165.6;" xml:space="preserve" width="739" height="166">
<style type="text/css">
	.st0{fill:#2D82CC;}
	.st1{fill:#FFFFFF;}
</style>
<path class="st0" d="M91.2,12L75.4,68.7H56.2l-8-32h-0.3l-8.2,32H20.4L5,12h20.2l6.1,31.8h0.3L38.1,12H58l7.1,31.8h0.3L71.6,12H91.2
	 M91.2,7H71.6c-2.4,0-4.5,1.7-4.9,4.1L65,20.1L62.9,11c-0.5-2.3-2.5-4-4.9-4H38.1c-2.4,0-4.4,1.7-4.9,4l-1.6,8l-1.5-7.9
	C29.6,8.7,27.6,7,25.2,7H5c-2.8,0-5,2.2-5,5c0,0.5,0.1,0.9,0.2,1.4L15.6,70c0.6,2.2,2.6,3.7,4.8,3.7h19.2c2.3,0,4.3-1.5,4.8-3.8
	L48,56.4l3.4,13.5c0.6,2.2,2.6,3.8,4.8,3.8h19.2c2.3,0,4.2-1.5,4.8-3.7L96,13.4c0.8-2.7-0.8-5.4-3.4-6.2C92.1,7.1,91.6,7,91.2,7z"/>
<path class="st0" d="M113.9,8.2v23h0.1c1.2-1.7,2.8-3,4.6-4c2.1-1.2,4.5-1.8,6.9-1.7c2.5-0.1,5,0.5,7.3,1.6c1.8,1,3.4,2.4,4.6,4.1
	c1.2,1.7,2,3.6,2.4,5.6c0.4,2,0.7,4.1,0.7,6.2v25.6H122V46.3c0-2.1-0.3-3.6-1-4.5c-0.7-0.9-1.9-1.4-3-1.3c-1.1,0-2.2,0.5-2.9,1.4
	c-1,1.3-1.4,2.9-1.3,4.4v22.3H95.4V8.2H113.9 M113.9,3.2H95.4c-2.8,0-5,2.2-5,5v60.5c0,2.8,2.2,5,5,5h18.5c1.6,0,3.2-0.8,4.1-2.1
	c0.9,1.3,2.4,2.1,4,2.1h18.5c2.8,0,5-2.2,5-5V43.1c0-2.5-0.3-4.9-0.8-7.3c-0.6-2.6-1.6-5.2-3.1-7.4c-1.6-2.4-3.8-4.3-6.4-5.7
	c-5.1-2.5-11-2.9-16.3-1.1V8.2C118.8,5.4,116.6,3.2,113.9,3.2L113.9,3.2z"/>
<path class="st0" d="M168.1,25c3.4-0.1,6.7,0.5,9.9,1.7c2.4,1,4.6,2.6,6.2,4.6c1.5,2,2.6,4.4,3.2,6.9c0.6,2.7,0.9,5.5,0.9,8.3v22.2
	h-16.7v-3.4h-0.2c-1.1,1.6-2.7,2.8-4.6,3.4c-1.9,0.7-3.8,1-5.8,1c-1.7,0-3.4-0.3-5.1-0.7c-1.7-0.5-3.3-1.3-4.7-2.3
	c-1.5-1.1-2.6-2.5-3.5-4.2c-1-2-1.4-4.1-1.4-6.3c-0.1-2.6,0.7-5.1,2.3-7.2c1.6-1.9,3.6-3.4,5.8-4.3c2.5-1.1,5.2-1.8,7.9-2.1
	c2.8-0.4,5.7-0.6,8.5-0.6V42c0.1-1.1-0.4-2.2-1.3-2.8c-1-0.7-2.3-1-3.5-0.9c-1.7,0-3.3,0.4-4.8,1.1c-1.4,0.7-2.8,1.5-4,2.5l-9.2-9.1
	c2.6-2.5,5.7-4.4,9.1-5.7C160.7,25.7,164.4,25,168.1,25 M166.4,58.7c1.6,0.1,3.1-0.5,4.2-1.7c1.1-1.2,1.7-2.7,1.6-4.3v-1.4h-1
	c-2.2-0.1-4.4,0.2-6.6,0.9c-1.5,0.4-2.5,1.7-2.5,3.3c0,0.5,0.1,1,0.4,1.5c0.3,0.4,0.6,0.7,1,1c0.4,0.3,0.9,0.5,1.4,0.6
	C165.4,58.6,165.9,58.7,166.4,58.7 M168.1,20c-4.3,0-8.6,0.8-12.6,2.3c-4,1.5-7.7,3.8-10.8,6.8c-2,1.9-2.1,5.1-0.1,7.1
	c0,0,0.1,0.1,0.1,0.1l5.4,5.4c-1.9,1.2-3.6,2.6-5.1,4.4c-2.3,2.9-3.5,6.6-3.4,10.3c-0.1,3,0.6,6,1.9,8.7c1.2,2.3,2.9,4.2,4.9,5.8
	c1.9,1.4,4.1,2.5,6.4,3.2c2.1,0.6,4.2,0.9,6.4,0.9c2.5,0,5-0.5,7.4-1.3c0.3-0.1,0.6-0.2,0.8-0.3c0.7,0.3,1.5,0.5,2.2,0.5h16.7
	c2.8,0,5-2.2,5-5V46.5c0-3.2-0.3-6.4-1.1-9.5c-0.7-3.2-2.1-6.2-4.1-8.8c-2.2-2.7-5-4.9-8.2-6.2C176.2,20.6,172.2,19.9,168.1,20z"/>
<path class="st0" d="M215.5,17.2v9.4h9.1v13.2h-9.1V51c0,2,0.4,3.4,1.3,4.1c1,0.8,2.3,1.2,3.6,1.1c0.6,0,1.2-0.1,1.8-0.2
	c0.5-0.1,1-0.2,1.5-0.3v12.6c-1.3,0.5-2.6,0.8-4,1c-1.8,0.3-3.6,0.4-5.5,0.4c-5.7,0-9.8-1.2-12.6-3.6c-2.7-2.4-4.1-6.2-4.1-11.3v-15
	h-5.9V26.6h5.8v-9.4H215.5 M215.5,12.2h-18c-2.8,0-5,2.2-5,5v4.4h-0.8c-2.8,0-5,2.2-5,5v13.2c0,2.8,2.2,5,5,5h0.9v10
	c0,6.6,1.9,11.6,5.8,15c3.6,3.3,9,4.9,15.9,4.9c2.1,0,4.2-0.1,6.2-0.5c1.8-0.2,3.6-0.7,5.3-1.4c1.8-0.8,3-2.6,3-4.6V55.7
	c0-2.8-2.2-5-5-5c-0.5,0-0.9,0.1-1.4,0.2c-0.1,0-0.3,0.1-1,0.2c-0.3,0.1-0.7,0.1-1,0.1v-6.4h4.1c2.8,0,5-2.2,5-5V26.6
	c0-2.8-2.2-5-5-5h-4.1v-4.4C220.4,14.4,218.2,12.2,215.5,12.2L215.5,12.2z"/>
<path class="st0" d="M259.1,5c1.2,0,2.5,0.2,3.6,0.8c1.1,0.5,2.1,1.2,3,2c0.9,0.9,1.6,1.9,2.1,3c0.5,1.1,0.8,2.4,0.8,3.6
	c0,1.3-0.3,2.5-0.8,3.7c-0.5,1.1-1.2,2.2-2.1,3c-0.9,0.8-1.9,1.5-3,2c-1.1,0.5-2.4,0.7-3.6,0.7c-2.5,0-5-1-6.8-2.7
	c-0.9-0.8-1.6-1.9-2.1-3c-0.5-1.2-0.8-2.4-0.8-3.7c0-1.3,0.3-2.5,0.8-3.6c0.5-1.1,1.2-2.1,2.1-3c0.9-0.8,1.9-1.5,3.1-2
	C256.5,5.3,257.8,5,259.1,5 M268.2,26.6v42.1h-18.5V26.6H268.2 M259.1,0c-2,0-3.9,0.4-5.8,1.2c-1.7,0.7-3.2,1.7-4.6,3
	c-1.3,1.3-2.4,2.9-3.2,4.6c-0.8,1.8-1.2,3.7-1.2,5.7c0,2,0.4,3.9,1.2,5.7c0.4,0.8,0.8,1.6,1.3,2.3c-1.3,0.9-2.2,2.5-2.1,4.1v42.1
	c0,2.8,2.2,5,5,5h18.5c2.8,0,5-2.2,5-5V26.6c0-1.6-0.8-3.2-2.1-4.1c0.5-0.7,0.9-1.5,1.3-2.3c0.8-1.8,1.2-3.8,1.2-5.7
	c0-1.9-0.4-3.9-1.2-5.7c-0.8-1.7-1.8-3.3-3.2-4.6c-1.3-1.2-2.8-2.3-4.4-3C263,0.4,261,0,259.1,0z"/>
<path class="st0" d="M294,25c3.3,0,6.5,0.5,9.7,1.4c3.1,0.9,6,2.2,8.6,4l-8.6,10.3c-1.3-0.8-2.6-1.5-4.1-2c-1.3-0.5-2.7-0.7-4.1-0.7
	c-0.8,0-1.5,0.1-2.2,0.4c-0.7,0.3-1.1,1.1-0.8,1.8c0.2,0.4,0.5,0.7,0.9,0.8c1.5,0.5,3,0.9,4.6,1.2c1.7,0.3,3.3,0.8,4.8,1.5
	c1.5,0.6,2.9,1.5,4.2,2.6c1.3,1,2.3,2.3,3,3.8c0.8,1.6,1.2,3.5,1.1,5.3c0.1,2.5-0.5,5-1.8,7.1c-1.1,1.9-2.7,3.4-4.5,4.6
	c-1.8,1.2-3.9,2-6,2.5c-2,0.5-4.1,0.7-6.2,0.8c-3.6,0-7.2-0.5-10.7-1.6c-3.3-0.9-6.3-2.4-9.1-4.4l9-10.5c1.3,1.2,2.9,2.2,4.5,2.8
	c1.6,0.7,3.3,1.1,5,1.1c0.6,0,1.2-0.1,1.8-0.4c0.5-0.2,0.9-0.8,0.8-1.4c0-0.7-0.5-1.2-1.5-1.6c-1.7-0.6-3.4-1.1-5.2-1.5
	c-1.4-0.3-2.8-0.8-4.1-1.4c-1.4-0.6-2.7-1.4-3.8-2.4c-1.2-1-2.1-2.3-2.8-3.7c-0.8-1.6-1.2-3.4-1.1-5.2c-0.1-2.5,0.5-4.9,1.8-7
	c1.2-1.9,2.7-3.5,4.6-4.7c1.8-1.2,3.9-2.1,6-2.6C289.9,25.2,291.9,25,294,25 M294,20c-2.5,0-5,0.4-7.4,1c-2.7,0.7-5.2,1.8-7.5,3.3
	c-2.5,1.6-4.5,3.7-6.1,6.2c-1.7,2.9-2.6,6.2-2.6,9.6c0,2.6,0.5,5.2,1.7,7.5c1,1.9,2.3,3.7,3.9,5.2L269,61c-0.9,1.1-1.3,2.4-1.2,3.8
	c0.2,1.4,0.9,2.6,2,3.5c3.2,2.4,6.8,4.1,10.6,5.2c3.9,1.2,8,1.8,12.1,1.8c2.5,0,4.9-0.3,7.4-0.9c2.7-0.6,5.2-1.7,7.5-3.1
	c2.5-1.6,4.6-3.7,6.1-6.2c1.8-2.9,2.6-6.3,2.5-9.8c0.1-5-2.1-9.7-5.9-12.9c-0.3-0.2-0.6-0.4-0.8-0.7l6.8-8.1c1.8-2.1,1.5-5.3-0.6-7
	c-0.1-0.1-0.3-0.2-0.4-0.3c-3.1-2-6.5-3.6-10-4.6C301.5,20.6,297.8,20,294,20z"/>
<path class="st0" d="M73.4,92.9v65.8H51.3v-25h-18v25H11.1V92.9h22v22.3h18V92.9H73.4 M73.4,87.9H51.2c-2.8,0-5,2.2-5,5v17.3h-8
	V92.9c0-2.8-2.2-5-5-5h-22c-2.8,0-5,2.2-5,5v65.8c0,2.8,2.2,5,5,5h22c2.8,0,5-2.2,5-5v-20h8v20c0,2.8,2.2,5,5,5h22.2
	c2.8,0,5-2.2,5-5V92.9C78.4,90.2,76.2,87.9,73.4,87.9z"/>
<path class="st0" d="M107.1,108c3.9-0.1,7.9,0.6,11.5,2c2.8,1.1,5.3,3,7.2,5.4c1.8,2.4,3.1,5.1,3.7,8c0.7,3.2,1.1,6.4,1.1,9.7v25.8
	h-19.4v-3.9H111c-1.3,1.9-3.1,3.3-5.3,4c-2.2,0.8-4.4,1.2-6.7,1.2c-2,0-4-0.3-5.9-0.8c-2-0.5-3.8-1.5-5.5-2.7c-1.7-1.3-3-3-4-4.8
	c-1.1-2.3-1.7-4.8-1.6-7.4c-0.1-3,0.8-6,2.7-8.4c1.8-2.2,4.1-3.9,6.8-5c2.9-1.3,6-2.1,9.2-2.5c3.3-0.4,6.6-0.6,9.9-0.7v-0.2
	c0.1-1.3-0.5-2.5-1.5-3.3c-1.2-0.8-2.6-1.1-4.1-1.1c-1.9,0-3.9,0.4-5.6,1.2c-1.7,0.8-3.2,1.8-4.7,2.9l-10.7-10.6
	c3.1-2.9,6.7-5.1,10.6-6.6C98.5,108.8,102.8,108,107.1,108 M105.1,147.2c1.9,0.1,3.6-0.7,4.9-2c1.3-1.4,1.9-3.2,1.9-5v-1.7h-1.2
	c-2.6-0.1-5.2,0.2-7.6,1c-1.7,0.4-2.9,2-2.9,3.8c0,0.6,0.1,1.2,0.5,1.7c0.3,0.5,0.7,0.9,1.2,1.2c0.5,0.3,1.1,0.5,1.6,0.7
	C104,147,104.6,147.1,105.1,147.2 M107.1,103c-4.9,0-9.8,0.9-14.4,2.7c-4.6,1.7-8.7,4.3-12.3,7.7c-2,1.9-2.1,5.1-0.1,7.1
	c0,0,0.1,0.1,0.1,0.1l7,7c-2.5,1.4-4.7,3.2-6.6,5.4c-2.6,3.3-3.9,7.4-3.8,11.5c-0.1,3.4,0.7,6.7,2.2,9.7c1.3,2.5,3.2,4.7,5.4,6.5
	c2.1,1.6,4.6,2.8,7.2,3.5c2.4,0.7,4.8,1,7.2,1c2.8,0,5.7-0.5,8.3-1.5c0.4-0.1,0.9-0.3,1.3-0.5c0.8,0.5,1.7,0.7,2.6,0.7h19.4
	c2.8,0,5-2.2,5-5V133c0-3.6-0.4-7.3-1.2-10.8c-0.8-3.6-2.4-7-4.6-9.9c-2.4-3.1-5.6-5.5-9.2-6.9C116.3,103.7,111.7,102.9,107.1,103
	L107.1,103z"/>
<path class="st0" d="M162.2,98.9v11h10.6v15.3h-10.6v13c0,2.4,0.5,4,1.5,4.8c1.2,0.9,2.7,1.3,4.2,1.2c0.7,0,1.4-0.1,2.1-0.2
	c0.8-0.1,1.3-0.2,1.8-0.4v14.7c-1.5,0.6-3.1,1-4.7,1.2c-2.1,0.3-4.2,0.5-6.4,0.5c-6.6,0-11.4-1.4-14.6-4.2s-4.7-7.2-4.7-13.2v-17.5
	h-6.9v-15.3h6.8v-11L162.2,98.9 M162.2,93.9h-20.8c-2.8,0-5,2.2-5,5v6h-1.8c-2.8,0-5,2.2-5,5v15.3c0,2.8,2.2,5,5,5h1.9v12.5
	c0,7.4,2.2,13.1,6.4,16.9c4.1,3.6,10.1,5.5,17.9,5.5c2.4,0,4.8-0.2,7.1-0.5c2.1-0.3,4.1-0.8,6-1.6c1.8-0.8,3-2.6,3-4.6v-14.7
	c0-2.8-2.2-5-5-5c-0.5,0-0.9,0.1-1.4,0.2c-0.1,0-0.4,0.1-1.2,0.2c-0.4,0.1-0.9,0.1-1.3,0.1c-0.2,0-0.5,0-0.7,0c0-0.3-0.1-0.7-0.1-1
	v-8h5.6c2.8,0,5-2.2,5-5v-15.4c0-2.8-2.2-5-5-5h-5.6v-6C167.2,96.1,165,93.9,162.2,93.9L162.2,93.9z"/>
<path class="st0" d="M203.7,108c3.8,0,7.6,0.6,11.3,1.7c3.5,1,6.9,2.6,10,4.7l-10,12c-1.5-1-3.1-1.7-4.7-2.3
	c-1.5-0.5-3.1-0.8-4.8-0.8c-0.9,0-1.8,0.1-2.6,0.4c-0.8,0.3-1.2,1.3-0.9,2.1c0.2,0.5,0.6,0.8,1,0.9c1.7,0.6,3.5,1,5.3,1.3
	c1.9,0.4,3.8,1,5.6,1.7c1.8,0.8,3.4,1.8,4.9,3c1.5,1.2,2.6,2.7,3.5,4.4c0.9,1.9,1.3,4,1.3,6.1c0.1,2.9-0.6,5.8-2.1,8.3
	c-1.3,2.2-3.1,4-5.3,5.4c-2.2,1.3-4.5,2.3-7,2.9c-2.4,0.6-4.8,0.9-7.2,0.9c-4.2,0-8.4-0.6-12.4-1.8c-3.8-1.1-7.4-2.8-10.6-5.2
	l10.5-12.2c1.5,1.4,3.3,2.5,5.2,3.3c1.8,0.8,3.8,1.2,5.8,1.2c0.7,0,1.4-0.1,2.1-0.4c0.6-0.2,1-0.9,1-1.5c0-0.8-0.6-1.4-1.7-1.9
	c-2-0.7-4-1.3-6-1.7c-1.6-0.4-3.2-0.9-4.8-1.6c-1.6-0.7-3.1-1.7-4.4-2.8c-1.4-1.2-2.5-2.7-3.3-4.3c-0.9-1.9-1.4-4-1.3-6.1
	c-0.1-2.8,0.6-5.6,2.1-8.1c1.3-2.2,3.2-4,5.3-5.4c2.1-1.4,4.5-2.4,7-3.1C199,108.4,201.4,108,203.7,108 M203.8,103
	c-2.8,0-5.6,0.4-8.4,1.1c-3,0.8-5.9,2-8.5,3.7c-2.8,1.8-5.1,4.2-6.8,7c-2,3.2-2.9,7-2.9,10.7c-0.1,2.9,0.6,5.8,1.9,8.4
	c1.1,2.2,2.6,4.2,4.4,5.8l0.5,0.5l-8.8,10.2c-1.8,2.1-1.6,5.2,0.5,7.1c0.1,0.1,0.2,0.1,0.3,0.2c3.7,2.7,7.8,4.7,12.1,6
	c4.5,1.3,9.2,2,13.8,2c2.8,0,5.6-0.4,8.4-1c3-0.7,5.9-1.9,8.5-3.5c2.8-1.8,5.1-4.1,6.9-6.9c2-3.3,2.9-7.1,2.8-10.9
	c0.1-2.9-0.6-5.8-1.8-8.4c-1.1-2.3-2.8-4.4-4.8-6c-0.5-0.4-1.1-0.9-1.6-1.2l8.4-10.1c1.8-2.1,1.5-5.3-0.6-7
	c-0.1-0.1-0.3-0.2-0.4-0.3c-3.5-2.3-7.3-4.1-11.4-5.3C212.3,103.7,208,103,203.8,103L203.8,103z"/>
<path class="st0" d="M283.1,109.9v48.9h-20.9v-5.4H262c-1.5,2-3.4,3.6-5.5,4.7c-2.6,1.4-5.5,2.1-8.4,2c-3,0.1-5.9-0.5-8.6-1.8
	c-2.1-1.1-4-2.8-5.4-4.7c-1.3-2-2.3-4.2-2.8-6.6c-0.5-2.4-0.8-4.8-0.8-7.3v-29.8H252v25.9c0,2.5,0.4,4.2,1.2,5.2
	c0.9,1,2.2,1.6,3.5,1.5c1.4,0,2.7-0.6,3.5-1.7c1-1.5,1.5-3.2,1.4-5v-25.8H283.1 M283.1,104.9h-21.5c-2.2,0-4.2,1.4-4.8,3.6
	c-0.6-2.1-2.6-3.6-4.8-3.6h-21.5c-2.8,0-5,2.2-5,5v29.8c0,2.8,0.3,5.6,0.9,8.4c0.6,3,1.8,5.8,3.6,8.4c1.8,2.6,4.3,4.8,7.1,6.3
	c3.4,1.7,7.1,2.5,10.9,2.4c3.8,0.1,7.5-0.8,10.8-2.6c0.9,0.8,2.1,1.3,3.4,1.3h20.9c2.8,0,5-2.2,5-5v-48.9
	C288.1,107.1,285.9,104.9,283.1,104.9L283.1,104.9z"/>
<path class="st0" d="M328,108.6c2.9-0.1,5.9,0.5,8.5,1.9c2.1,1.1,4,2.8,5.4,4.8c1.3,2,2.3,4.2,2.8,6.6c0.5,2.4,0.8,4.8,0.8,7.2v29.8
	H324v-26c0-2.5-0.4-4.2-1.2-5.2c-1.7-1.9-4.6-2-6.5-0.3c-0.2,0.2-0.3,0.3-0.5,0.5c-1,1.5-1.5,3.2-1.4,5v26H293v-48.9h20.9v5.4h0.2
	c1.4-2,3.3-3.6,5.5-4.7C322.2,109.2,325.1,108.5,328,108.6 M328,103.6c-3.7-0.1-7.4,0.8-10.7,2.6c-0.9-0.8-2.1-1.3-3.4-1.3H293
	c-2.8,0-5,2.2-5,5v48.9c0,2.8,2.2,5,5,5h21.5c2.1,0,4.1-1.4,4.7-3.4c0.7,2,2.6,3.4,4.7,3.4h21.5c2.8,0,5-2.2,5-5V129
	c0-2.8-0.3-5.6-0.9-8.3c-0.6-3-1.8-5.8-3.5-8.3c-1.8-2.7-4.3-4.8-7.1-6.4C335.6,104.3,331.8,103.4,328,103.6L328,103.6z"/>
<path class="st0" d="M380.2,108c3.6,0,7.2,0.6,10.5,2c3.1,1.3,5.8,3.2,8.1,5.6c2.3,2.5,4.1,5.3,5.3,8.5c1.3,3.4,1.9,7.1,1.9,10.7
	c0,0.8,0,1.6,0,2.5s-0.1,1.5-0.1,2.1h-32.9c0.1,0.8,0.4,1.7,0.9,2.3c0.6,0.7,1.2,1.3,2,1.8c0.8,0.5,1.7,0.9,2.6,1.1
	c1,0.3,1.9,0.4,2.9,0.4c1.7,0.1,3.4-0.3,5-1.1c1.1-0.6,2.2-1.4,3-2.4l15.2,7.7c-2.3,3.6-5.6,6.5-9.4,8.4c-4.5,2.1-9.4,3.2-14.4,3.1
	c-3.5,0-7-0.5-10.4-1.6c-3.3-1.1-6.3-2.8-8.9-5c-2.6-2.3-4.7-5.1-6.2-8.2c-1.6-3.6-2.4-7.5-2.3-11.4c-0.1-3.7,0.7-7.5,2.1-10.9
	c1.3-3.1,3.3-6,5.8-8.3c2.5-2.3,5.5-4.1,8.6-5.3C373,108.6,376.6,108,380.2,108 M372.7,127.8h14.8c0-1.6-0.7-3.2-1.9-4.3
	c-1.5-1.2-3.3-1.8-5.2-1.7c-2-0.1-4,0.6-5.5,2C373.8,124.9,373,126.3,372.7,127.8 M380.2,103c-4.2,0-8.4,0.7-12.4,2.2
	c-3.8,1.4-7.3,3.5-10.3,6.3c-3,2.8-5.4,6.2-7,9.9c-1.7,4.1-2.6,8.5-2.5,12.9c-0.1,4.7,0.9,9.3,2.8,13.6c1.8,3.8,4.3,7.2,7.5,9.9
	c3.1,2.6,6.7,4.6,10.5,5.9c3.8,1.3,7.9,1.9,11.9,1.9c5.7,0.1,11.4-1.1,16.6-3.6c4.7-2.2,8.7-5.8,11.5-10.2c1.4-2.4,0.7-5.4-1.6-6.9
	c-0.1-0.1-0.2-0.1-0.4-0.2l-0.8-0.4c2.5-0.1,4.5-2,4.8-4.4c0.1-0.7,0.1-1.5,0.2-2.4s0-1.8,0-2.6c0-4.3-0.7-8.5-2.2-12.5
	c-1.4-3.8-3.6-7.2-6.3-10.2c-2.8-2.9-6.1-5.2-9.8-6.7C388.8,103.8,384.5,103,380.2,103L380.2,103z"/>
<path class="st0" d="M519.5,92.9v65.8H498l0.6-37l-0.5-0.1l-12.3,37.1h-15.7l-12.1-37.2h-0.5l1,37.2H438V92.9h29l11.9,35.4h0.5
	l10.3-35.4L519.5,92.9 M519.6,87.9h-29.9c-2.2,0-4.2,1.5-4.8,3.6l-6.1,20.9l-7.1-21.1c-0.7-2-2.6-3.4-4.7-3.4H438c-2.8,0-5,2.2-5,5
	v65.8c0,2.8,2.2,5,5,5h20.6c2.8,0,5-2.2,5-5c0,0,0-0.1,0-0.1l-0.1-4.1l1.9,5.8c0.7,2.1,2.6,3.5,4.8,3.4h15.6c2.2,0,4.1-1.4,4.8-3.4
	l2.5-7.7l-0.1,6c0,2.8,2.1,5,4.9,5.1c0,0,0.1,0,0.1,0h21.6c2.8,0,5-2.2,5-5V92.9C524.6,90.2,522.3,87.9,519.6,87.9L519.6,87.9z"/>
<path class="st0" d="M540.5,84.8c1.4,0,2.9,0.3,4.2,0.9c1.3,0.6,2.5,1.4,3.5,2.4c1,1,1.8,2.2,2.4,3.5c0.6,1.3,0.9,2.8,0.9,4.2
	c0,2.9-1.2,5.7-3.3,7.8c-1,1-2.2,1.7-3.5,2.3c-1.3,0.6-2.7,0.9-4.2,0.8c-3,0-5.8-1.1-8-3.1c-1-1-1.9-2.1-2.4-3.4
	c-0.6-1.4-0.9-2.8-0.9-4.3c0-1.5,0.3-2.9,0.9-4.2c0.6-1.3,1.4-2.5,2.5-3.5c1-1,2.3-1.8,3.6-2.4C537.5,85,539,84.7,540.5,84.8
	 M551.1,109.8v48.9h-21.5v-48.9L551.1,109.8 M540.5,79.8c-2.2,0-4.4,0.4-6.4,1.3c-1.9,0.8-3.6,1.9-5.1,3.4c-1.5,1.4-2.7,3.2-3.5,5.1
	c-2.3,5.2-1.5,11.3,1.9,15.9c-1.8,0.8-2.9,2.6-2.9,4.5v48.9c0,2.8,2.2,5,5,5h21.5c2.8,0,5-2.2,5-5v-48.9c0-1.9-1.1-3.7-2.9-4.5
	c0.8-1,1.4-2.1,1.9-3.3c0.9-2,1.3-4.2,1.3-6.3c0-2.2-0.4-4.3-1.3-6.2c-0.8-1.9-2-3.6-3.5-5.1c-1.4-1.4-3.1-2.5-4.9-3.3
	C544.8,80.2,542.6,79.7,540.5,79.8z"/>
<path class="st0" d="M582.5,88.5v40.1h0.3l11.6-18.7h24.9l-15.8,22l15.7,26.9h-25l-11.5-21.2h-0.3v21.3H561V88.5H582.5 M582.5,83.5
	H561c-2.8,0-5,2.2-5,5v70.3c0,2.8,2.2,5,5,5h21.5c2.8,0,5-2.2,5-5v-1.9l2.3,4.3c0.9,1.6,2.6,2.6,4.4,2.6h25c2.8,0,5-2.2,5-5
	c0-0.9-0.2-1.7-0.7-2.5l-14.1-24.1l13.9-19.4c1.6-2.2,1.1-5.4-1.1-7c-0.9-0.6-1.9-0.9-2.9-0.9h-24.9c-1.7,0-3.3,0.9-4.2,2.4
	l-2.7,4.3v-23C587.5,85.7,585.3,83.5,582.5,83.5L582.5,83.5z"/>
<path class="st0" d="M675.2,109.9v48.9h-20.9v-5.4H654c-1.4,2-3.3,3.6-5.5,4.7c-2.6,1.4-5.5,2.1-8.4,2c-3,0.1-5.9-0.5-8.6-1.8
	c-2.1-1.1-4-2.8-5.3-4.7c-1.4-2-2.3-4.2-2.8-6.6c-0.5-2.4-0.8-4.8-0.8-7.3v-29.8H644v25.9c0,2.5,0.4,4.2,1.2,5.2
	c0.9,1,2.2,1.6,3.5,1.5c1.4,0,2.7-0.6,3.5-1.7c1-1.5,1.5-3.2,1.4-5v-25.8H675.2 M675.1,104.9h-21.4c-2.2,0-4.2,1.4-4.8,3.6
	c-0.6-2.1-2.6-3.6-4.8-3.6h-21.5c-2.8,0-5,2.2-5,5v29.8c0,2.8,0.3,5.6,0.9,8.4c0.6,3,1.8,5.8,3.5,8.4c1.8,2.6,4.3,4.8,7.1,6.3
	c3.4,1.7,7.1,2.5,10.9,2.4c3.8,0.1,7.5-0.8,10.8-2.6c0.9,0.8,2.1,1.3,3.4,1.3h20.9c2.8,0,5-2.2,5-5v-48.9
	C680.2,107.1,677.9,104.9,675.1,104.9L675.1,104.9z"/>
<path class="st0" d="M708.6,91.1c2.9,0,5.9,0.4,8.7,1c2.8,0.6,5.5,1.7,8,3.3c2.4,1.5,4.4,3.6,5.9,6c1.6,2.8,2.4,6,2.3,9.3
	c0,2-0.2,3.9-0.8,5.8c-0.5,1.7-1.3,3.2-2.4,4.6c-1.1,1.4-2.4,2.7-3.8,3.9c-1.6,1.2-3.3,2.4-5,3.4c-1,0.6-1.9,1.4-2.6,2.3
	c-0.4,0.7-0.7,1.5-0.7,2.3v2.4h-19.9v-3.4c0-1.7,0.2-3.3,0.7-4.9c0.4-1.3,1.1-2.6,1.9-3.8c0.8-1.2,1.8-2.2,2.9-3.1
	c1.1-1,2.3-1.9,3.6-2.8l1.6-1.1c0.9-0.6,1.6-1.2,2.3-2c0.5-0.6,0.8-1.3,0.8-2.1c0.1-1.1-0.3-2.1-1.2-2.8c-0.8-0.5-1.8-0.8-2.7-0.8
	c-1.8-0.2-3.4,0.7-4.4,2.2c-0.9,1.5-1.3,3.3-1.3,5.1l-20-2.6c0.3-3.6,1.3-7.1,2.9-10.2c1.5-2.7,3.5-5,6-6.9c2.4-1.8,5.1-3.1,8-3.9
	C702.5,91.4,705.6,91,708.6,91.1 M708.4,137.7c1.5,0,3.1,0.3,4.5,0.9c1.4,0.6,2.6,1.4,3.7,2.4c2.2,2.1,3.4,5,3.3,8
	c0,1.5-0.3,3-0.9,4.5c-0.6,1.3-1.4,2.5-2.5,3.5c-1.1,1-2.3,1.8-3.7,2.4c-2.9,1.2-6.1,1.2-9,0c-1.4-0.6-2.6-1.4-3.7-2.4
	c-1.1-1-1.9-2.2-2.5-3.5c-0.6-1.4-0.9-2.9-0.9-4.5c0-3,1.2-5.9,3.3-8c1.1-1,2.3-1.9,3.7-2.4C705.3,138,706.9,137.7,708.4,137.7
	 M708.7,86.1c-3.5,0-7.1,0.5-10.5,1.4c-3.5,0.9-6.8,2.5-9.7,4.7c-3,2.3-5.5,5.1-7.3,8.4c-2,3.8-3.2,7.9-3.5,12.2
	c-0.2,2.7,1.7,5.1,4.3,5.4l15.2,2l-0.1,0.2c-1.1,1.6-2,3.3-2.6,5.1c-0.7,2.1-1,4.3-1,6.5v3.4c0,1.5,0.6,2.9,1.8,3.8
	c-0.8,1.1-1.5,2.2-2.1,3.5c-0.9,2-1.3,4.2-1.3,6.4c0,2.2,0.4,4.4,1.3,6.4c0.8,2,2.1,3.7,3.6,5.2c1.5,1.4,3.2,2.5,5.2,3.3
	c4.1,1.7,8.8,1.7,12.9,0c1.9-0.8,3.7-1.9,5.2-3.3c1.6-1.5,2.8-3.2,3.6-5.2c0.9-2,1.3-4.2,1.3-6.4c0-2.2-0.4-4.3-1.3-6.4
	c-0.5-1.2-1.2-2.4-2.1-3.5c1.1-1,1.8-2.3,1.8-3.8v-2.1c0.3-0.2,0.6-0.5,0.9-0.7c1.9-1.1,3.7-2.4,5.5-3.8c1.8-1.4,3.4-3,4.7-4.8
	c1.4-1.8,2.4-3.8,3.1-6c0.7-2.4,1.1-4.8,1.1-7.3c0.1-4.2-1-8.3-3.1-11.9c-1.9-3.1-4.5-5.7-7.5-7.7c-3-1.9-6.2-3.2-9.7-3.9
	C715.2,86.5,711.9,86.1,708.7,86.1L708.7,86.1z"/>
<path class="st1" d="M39.6,68.7H20.4L5,12h20.2l6.1,31.8h0.3L38.1,12H58l7.1,31.8h0.3L71.6,12h19.5L75.4,68.7H56.2l-8-32h-0.3
	L39.6,68.7z"/>
<path class="st1" d="M125.5,25.5c2.5-0.1,5,0.5,7.3,1.6c1.8,1,3.4,2.4,4.6,4.1c1.2,1.7,2,3.6,2.4,5.6c0.4,2,0.7,4.1,0.7,6.2v25.6
	H122V46.3c0-2.1-0.3-3.6-1-4.5c-0.7-0.9-1.9-1.4-3-1.3c-1.1,0-2.2,0.5-2.9,1.4c-1,1.3-1.4,2.9-1.3,4.4v22.3H95.4V8.2h18.5v23h0.1
	c1.2-1.7,2.8-3,4.6-4C120.7,26,123.1,25.4,125.5,25.5z"/>
<path class="st1" d="M171,42c0.1-1.1-0.4-2.2-1.3-2.8c-1-0.7-2.3-1-3.5-0.9c-1.7,0-3.3,0.4-4.8,1.1c-1.4,0.7-2.8,1.5-4,2.5l-9.2-9.1
	c2.6-2.5,5.7-4.4,9.1-5.7c3.5-1.3,7.2-2,10.9-2c3.4-0.1,6.7,0.5,9.9,1.7c2.4,1,4.6,2.6,6.2,4.6c1.5,2,2.6,4.4,3.2,6.9
	c0.6,2.7,0.9,5.5,0.9,8.3v22.2h-16.7v-3.4h-0.2c-1.1,1.6-2.7,2.8-4.6,3.4c-1.9,0.7-3.8,1-5.8,1c-1.7,0-3.4-0.3-5.1-0.7
	c-1.7-0.5-3.3-1.3-4.7-2.3c-1.5-1.1-2.6-2.5-3.5-4.2c-1-2-1.4-4.1-1.4-6.3c-0.1-2.6,0.7-5.1,2.3-7.2c1.6-1.9,3.6-3.4,5.8-4.3
	c2.5-1.1,5.2-1.8,7.9-2.1C165.3,42.3,168.2,42.1,171,42L171,42z M171.2,51.3c-2.2-0.1-4.4,0.2-6.6,0.9c-1.5,0.4-2.5,1.7-2.5,3.3
	c0,0.5,0.1,1,0.4,1.5c0.3,0.4,0.6,0.7,1,1c0.4,0.3,0.9,0.5,1.4,0.6c2,0.5,4.2,0,5.7-1.5c1.1-1.2,1.7-2.7,1.6-4.3v-1.4L171.2,51.3z"
	/>
<path class="st1" d="M214.3,69.8c-5.7,0-9.8-1.2-12.6-3.6s-4.1-6.2-4.1-11.3v-15h-5.9V26.6h5.8v-9.4h17.9v9.4h9.1v13.2h-9.1V51
	c0,2,0.4,3.4,1.3,4.1c1,0.8,2.3,1.2,3.6,1.1c0.6,0,1.2-0.1,1.8-0.2c0.5-0.1,1-0.2,1.5-0.3v12.6c-1.3,0.5-2.6,0.8-4,1
	C218,69.6,216.1,69.8,214.3,69.8z"/>
<path class="st1" d="M249.4,14.4c0-1.3,0.3-2.5,0.8-3.6c0.5-1.1,1.2-2.1,2.1-3c0.9-0.8,1.9-1.5,3.1-2c1.2-0.5,2.5-0.8,3.8-0.8
	c1.2,0,2.5,0.2,3.6,0.8c1.1,0.5,2.1,1.2,3,2c0.9,0.9,1.6,1.9,2.1,3c0.5,1.1,0.8,2.4,0.8,3.6c0,1.3-0.3,2.5-0.8,3.7
	c-0.5,1.1-1.2,2.2-2.1,3c-0.9,0.8-1.9,1.5-3,2c-1.1,0.5-2.4,0.7-3.6,0.7c-2.5,0-5-1-6.8-2.7c-0.9-0.8-1.6-1.9-2.1-3
	C249.6,17,249.4,15.7,249.4,14.4z M249.7,26.6h18.5v42.1h-18.5V26.6z"/>
<path class="st1" d="M311.2,55.3c0.1,2.5-0.5,5-1.8,7.1c-1.1,1.9-2.7,3.4-4.5,4.6c-1.8,1.2-3.9,2-6,2.5c-2,0.5-4.1,0.7-6.2,0.8
	c-3.6,0-7.2-0.5-10.7-1.6c-3.3-0.9-6.3-2.4-9.1-4.4l9-10.5c1.3,1.2,2.9,2.2,4.5,2.8c1.6,0.7,3.3,1.1,5,1.1c0.6,0,1.2-0.1,1.8-0.4
	c0.5-0.2,0.9-0.8,0.8-1.4c0-0.7-0.5-1.2-1.5-1.6c-1.7-0.6-3.4-1.1-5.2-1.5c-1.4-0.3-2.8-0.8-4.1-1.4c-1.4-0.6-2.7-1.4-3.8-2.4
	c-1.2-1-2.1-2.3-2.8-3.7c-0.8-1.6-1.2-3.4-1.1-5.2c-0.1-2.5,0.5-4.9,1.8-7c1.2-1.9,2.7-3.5,4.6-4.7c1.8-1.2,3.9-2.1,6-2.6
	c2-0.5,4.1-0.8,6.1-0.8c3.3,0,6.5,0.5,9.7,1.4c3.1,0.9,6,2.2,8.6,4l-8.6,10.3c-1.3-0.8-2.6-1.5-4.1-2c-1.3-0.5-2.7-0.7-4.1-0.7
	c-0.8,0-1.5,0.1-2.2,0.4c-0.7,0.3-1.1,1.1-0.8,1.8c0.2,0.4,0.5,0.7,0.9,0.8c1.5,0.5,3,0.9,4.6,1.2c1.7,0.3,3.3,0.8,4.8,1.5
	c1.5,0.6,2.9,1.5,4.2,2.6c1.3,1,2.3,2.3,3,3.8C310.8,51.7,311.2,53.5,311.2,55.3z"/>
<path class="st1" d="M51.3,133.8h-18v25H11.1V92.9h22v22.3h18V92.9h22.3v65.8H51.3V133.8z"/>
<path class="st1" d="M110.5,127.7c0.1-1.3-0.5-2.5-1.5-3.3c-1.2-0.8-2.6-1.1-4.1-1.1c-1.9,0-3.9,0.4-5.6,1.2
	c-1.7,0.8-3.2,1.8-4.7,2.9l-10.7-10.6c3.1-2.9,6.7-5.1,10.6-6.6c4-1.5,8.3-2.3,12.7-2.3c3.9-0.1,7.9,0.6,11.5,2
	c2.8,1.1,5.3,3,7.2,5.4c1.8,2.4,3.1,5.1,3.7,8c0.7,3.2,1.1,6.4,1.1,9.7v25.8h-19.4v-3.9H111c-1.3,1.9-3.1,3.3-5.3,4
	c-2.2,0.8-4.4,1.2-6.7,1.2c-2,0-4-0.3-5.9-0.8c-2-0.5-3.8-1.5-5.5-2.7c-1.7-1.3-3-3-4-4.8c-1.1-2.3-1.7-4.8-1.6-7.4
	c-0.1-3,0.8-6,2.7-8.4c1.8-2.2,4.1-3.9,6.8-5c2.9-1.3,6-2.1,9.2-2.5c3.3-0.4,6.6-0.6,9.9-0.7V127.7z M110.7,138.5
	c-2.6-0.1-5.2,0.2-7.6,1c-1.7,0.4-2.9,2-2.9,3.8c0,0.6,0.1,1.2,0.5,1.7c0.3,0.5,0.7,0.9,1.2,1.2c0.5,0.3,1.1,0.5,1.6,0.7
	c0.5,0.2,1.1,0.2,1.6,0.2c1.9,0.1,3.6-0.7,4.9-2c1.3-1.4,1.9-3.2,1.9-5v-1.7L110.7,138.5z"/>
<path class="st1" d="M160.8,160.1c-6.6,0-11.4-1.4-14.6-4.2s-4.7-7.2-4.7-13.2v-17.5h-6.9v-15.3h6.8v-11h20.8v11h10.6v15.3h-10.6v13
	c0,2.4,0.5,4,1.5,4.8c1.2,0.9,2.7,1.3,4.2,1.2c0.7,0,1.4-0.1,2.1-0.2c0.8-0.1,1.3-0.2,1.8-0.4v14.7c-1.5,0.6-3.1,1-4.7,1.2
	C165,159.9,162.9,160.1,160.8,160.1z"/>
<path class="st1" d="M223.6,143.2c0.1,2.9-0.6,5.8-2.1,8.3c-1.3,2.2-3.1,4-5.3,5.4c-2.2,1.3-4.5,2.3-7,2.9c-2.4,0.6-4.8,0.9-7.2,0.9
	c-4.2,0-8.4-0.6-12.4-1.8c-3.8-1.1-7.4-2.8-10.6-5.2l10.5-12.2c1.5,1.4,3.3,2.5,5.2,3.3c1.8,0.8,3.8,1.2,5.8,1.2
	c0.7,0,1.4-0.1,2.1-0.4c0.6-0.2,1-0.9,1-1.5c0-0.8-0.6-1.4-1.7-1.9c-2-0.7-4-1.3-6-1.7c-1.6-0.4-3.2-0.9-4.8-1.6
	c-1.6-0.7-3.1-1.7-4.4-2.8c-1.4-1.2-2.5-2.7-3.3-4.3c-0.9-1.9-1.4-4-1.3-6.1c-0.1-2.8,0.6-5.6,2.1-8.1c1.3-2.2,3.2-4,5.3-5.4
	c2.1-1.4,4.5-2.4,7-3.1c2.3-0.6,4.7-1,7.1-1c3.8,0,7.6,0.6,11.2,1.7c3.5,1,6.9,2.6,10,4.7l-10,12c-1.5-1-3.1-1.7-4.7-2.3
	c-1.5-0.5-3.1-0.8-4.8-0.8c-0.9,0-1.8,0.1-2.6,0.4c-0.8,0.3-1.2,1.3-0.9,2.1c0.2,0.5,0.6,0.8,1,0.9c1.7,0.6,3.5,1,5.3,1.3
	c1.9,0.4,3.8,1,5.6,1.7c1.8,0.8,3.4,1.8,4.9,3c1.5,1.2,2.6,2.7,3.5,4.4C223.2,139,223.7,141.1,223.6,143.2z"/>
<path class="st1" d="M283.1,158.8h-20.9v-5.4H262c-1.5,2-3.4,3.6-5.5,4.7c-2.6,1.4-5.5,2.1-8.4,2c-3,0.1-5.9-0.5-8.6-1.8
	c-2.1-1.1-4-2.8-5.4-4.7c-1.3-2-2.3-4.2-2.8-6.6c-0.5-2.4-0.8-4.8-0.8-7.3v-29.8H252v25.9c0,2.5,0.4,4.2,1.2,5.2
	c0.9,1,2.2,1.6,3.5,1.5c1.4,0,2.7-0.6,3.5-1.7c1-1.5,1.5-3.2,1.4-5v-25.8h21.5L283.1,158.8z"/>
<path class="st1" d="M293,109.9h20.9v5.4h0.2c1.4-2,3.3-3.6,5.5-4.7c2.6-1.4,5.5-2.1,8.4-2c2.9-0.1,5.9,0.5,8.5,1.9
	c2.1,1.1,4,2.8,5.4,4.8c1.3,2,2.3,4.2,2.8,6.6c0.5,2.4,0.8,4.8,0.8,7.2v29.8H324v-26c0-2.5-0.4-4.2-1.2-5.2c-1.7-1.9-4.6-2-6.5-0.3
	c-0.2,0.2-0.3,0.3-0.5,0.5c-1,1.5-1.5,3.2-1.4,5v26H293V109.9z"/>
<path class="st1" d="M406,134.8c0,0.8,0,1.6,0,2.5s-0.1,1.5-0.1,2.1h-32.9c0.1,0.8,0.4,1.7,0.9,2.3c0.6,0.7,1.2,1.3,2,1.8
	c0.8,0.5,1.7,0.9,2.6,1.1c1,0.3,1.9,0.4,2.9,0.4c1.7,0.1,3.4-0.3,5-1.1c1.1-0.6,2.2-1.4,3-2.4l15.2,7.7c-2.3,3.6-5.6,6.5-9.4,8.4
	c-4.5,2.1-9.4,3.2-14.4,3.1c-3.5,0-7-0.5-10.4-1.6c-3.3-1.1-6.3-2.8-8.9-5c-2.6-2.3-4.7-5.1-6.2-8.2c-1.6-3.6-2.4-7.5-2.3-11.4
	c-0.1-3.7,0.7-7.5,2.1-10.9c1.3-3.1,3.3-6,5.8-8.3c2.5-2.3,5.5-4.1,8.6-5.3c3.4-1.3,7-1.9,10.6-1.9c3.6,0,7.2,0.6,10.5,2
	c3.1,1.3,5.8,3.2,8.1,5.6c2.3,2.5,4.1,5.3,5.3,8.5C405.4,127.5,406,131.1,406,134.8z M387.5,127.8c0-1.6-0.7-3.2-1.9-4.3
	c-1.5-1.2-3.3-1.8-5.2-1.7c-2-0.1-4,0.6-5.5,2c-1.2,1.1-2,2.5-2.2,4L387.5,127.8z"/>
<path class="st1" d="M457.6,121.6l1,37.2H438V92.9h29l11.9,35.4h0.5l10.3-35.4h29.9v65.8H498l0.6-37l-0.5-0.1l-12.3,37.1h-15.7
	l-12.1-37.2L457.6,121.6z"/>
<path class="st1" d="M529.2,95.7c0-1.5,0.3-2.9,0.9-4.2c0.6-1.3,1.4-2.5,2.4-3.5c1-1,2.3-1.8,3.6-2.4c1.4-0.6,2.9-0.9,4.4-0.9
	c1.4,0,2.9,0.3,4.2,0.9c1.3,0.6,2.5,1.4,3.5,2.4c1,1,1.8,2.2,2.4,3.5c0.6,1.3,0.9,2.8,0.9,4.2c0,2.9-1.2,5.7-3.3,7.8
	c-1,1-2.2,1.7-3.5,2.3c-1.3,0.6-2.7,0.9-4.2,0.8c-3,0-5.8-1.1-8-3.1c-1-1-1.9-2.1-2.4-3.4C529.5,98.7,529.2,97.2,529.2,95.7z
	 M529.6,109.9h21.5v48.9h-21.5V109.9z"/>
<path class="st1" d="M582.5,137.5v21.3H561V88.5h21.5v40.1h0.3l11.6-18.7h24.9l-15.8,22l15.7,26.9h-25l-11.4-21.2H582.5z"/>
<path class="st1" d="M675.2,158.8h-20.9v-5.4H654c-1.4,2-3.3,3.6-5.5,4.7c-2.6,1.4-5.5,2.1-8.4,2c-3,0.1-5.9-0.5-8.6-1.8
	c-2.1-1.1-4-2.8-5.3-4.7c-1.4-2-2.3-4.2-2.8-6.6c-0.5-2.4-0.8-4.8-0.8-7.3v-29.8H644v25.9c0,2.5,0.4,4.2,1.2,5.2
	c0.9,1,2.2,1.6,3.5,1.5c1.4,0,2.7-0.6,3.5-1.7c1-1.5,1.5-3.2,1.4-5v-25.8h21.5L675.2,158.8z"/>
<path class="st1" d="M721.6,128.3c-1,0.6-1.9,1.4-2.6,2.3c-0.4,0.7-0.7,1.5-0.7,2.3v2.4h-19.9v-3.4c0-1.7,0.2-3.3,0.7-4.9
	c0.4-1.3,1.1-2.6,1.9-3.8c0.8-1.2,1.8-2.2,2.9-3.1c1.1-1,2.3-1.9,3.6-2.8l1.6-1.1c0.9-0.6,1.6-1.2,2.3-2c0.5-0.6,0.8-1.3,0.8-2.1
	c0.1-1.1-0.3-2.1-1.2-2.8c-0.8-0.5-1.8-0.8-2.7-0.8c-1.8-0.2-3.4,0.7-4.4,2.2c-0.9,1.5-1.3,3.3-1.3,5.1l-20-2.6
	c0.3-3.6,1.3-7.1,2.9-10.2c1.5-2.7,3.5-5,6-6.9c2.4-1.8,5.1-3.1,8-3.9c3-0.8,6.1-1.2,9.2-1.2c2.9,0,5.9,0.4,8.7,1
	c2.8,0.6,5.5,1.7,8,3.3c2.4,1.5,4.4,3.6,5.9,6c1.6,2.8,2.4,6,2.3,9.3c0,2-0.2,3.9-0.8,5.8c-0.5,1.7-1.3,3.2-2.4,4.6
	c-1.1,1.4-2.4,2.7-3.8,3.9C725,126.1,723.3,127.2,721.6,128.3z M708.3,160.3c-1.5,0-3.1-0.3-4.5-0.9c-1.4-0.6-2.6-1.4-3.7-2.4
	c-1.1-1-1.9-2.2-2.5-3.5c-0.6-1.4-0.9-2.9-0.9-4.5c0-3,1.2-5.9,3.3-8c1.1-1,2.3-1.9,3.7-2.4c2.9-1.2,6.1-1.2,9,0
	c1.4,0.6,2.6,1.4,3.7,2.4c2.2,2.1,3.4,5,3.3,8c0,1.5-0.3,3-0.9,4.5c-0.6,1.3-1.4,2.5-2.5,3.5c-1.1,1-2.3,1.8-3.7,2.4
	C711.4,160,709.9,160.3,708.3,160.3L708.3,160.3z"/>
</svg>
