<svg version="1.1" xmlns="http://www.w3.org/2000/svg" xmlns:xlink="http://www.w3.org/1999/xlink" x="0px" y="0px" viewBox="0 0 91 44.6" style="enable-background:new 0 0 91 44.6;" xml:space="preserve" width="91" height="45">
<style type="text/css">
	.st0{fill:#F2AC20;}
</style>
<path class="st0" d="M16.6,28.4c7.6-0.5,15.3-0.9,23-1.2L27,1.7c-0.1-0.2-0.1-0.3-0.1-0.5c0-0.7,0.5-1.2,1.2-1.2c0,0,0,0,0,0h5.8
	c0.7,0,1.3,0.3,1.8,0.7L63,26.5c4.8-0.1,9.5-0.3,14.3-0.3c10.5,0,12.8,7.5,13.6,10.6c0.8,3.5-1.4,6.9-4.9,7.7
	c-0.4,0.1-0.8,0.1-1.2,0.1h-7.5c-3.5,0-29.9-0.7-47-1.3l-13.7-0.6l-6.4-0.4c-3.4-0.2-6.3-2.6-7.2-6L0,23.7c0-0.1,0-0.2,0-0.3
	C0,22.6,0.6,22,1.4,22h7.1c0.5,0,0.9,0.3,1.2,0.7l3.1,5c0.4,0.6,1,0.9,1.7,0.9L16.6,28.4z"/>
</svg>