<svg version="1.1" xmlns="http://www.w3.org/2000/svg" xmlns:xlink="http://www.w3.org/1999/xlink" x="0px" y="0px" viewBox="0 0 362 37.3" style="enable-background:new 0 0 362 37.3;" xml:space="preserve" width="362" height="38">
<style type="text/css">
	.st0{fill:#0D3243;}
</style>
<path class="st0" d="M9.7,12.7c-2.4,0-3.6,0.7-3.6,2c0,0.6,0.2,1.2,0.7,1.7c0.7,0.5,1.5,0.9,2.4,1c2.6,0.6,4.4,1.4,5.3,2.2
	c1,1,1.5,2.4,1.4,3.8c0.1,1.4-0.6,2.8-1.8,3.6c-1.5,1-3.4,1.4-5.2,1.3c-2,0-3.9-0.3-5.8-1v-2.9c1.7,0.8,3.6,1.2,5.4,1.2
	c2.5,0,3.7-0.7,3.7-2.2c0-0.7-0.3-1.3-0.7-1.7c-0.8-0.6-1.7-1-2.7-1.2c-1.8-0.3-3.5-1-4.9-2.2c-0.9-0.8-1.4-2-1.4-3.3
	c-0.1-1.4,0.6-2.8,1.7-3.7c1.5-1,3.3-1.5,5.1-1.3c2,0,3.9,0.3,5.8,0.9v2.9C13.4,13.1,11.6,12.7,9.7,12.7z"/>
<path class="st0" d="M31.4,25.8c-1.4,1.6-3.4,2.5-5.5,2.5c-1.6,0.1-3.3-0.5-4.4-1.6c-0.9-1.1-1.4-2.9-1.4-5.5V10.3h3.5v10.4
	c-0.1,1.3,0.1,2.7,0.8,3.9c0.6,0.8,1.6,1.1,2.5,1c1.2,0,2.2-0.6,3-1.4c0.9-0.8,1.4-1.8,1.4-3V10.3h3.6V28h-3.3L31.4,25.8L31.4,25.8z
	"/>
<path class="st0" d="M55.8,19.1c0.1,2.4-0.6,4.8-2,6.7c-1.2,1.6-3.1,2.5-5.1,2.5c-2,0-3.9-0.8-5.2-2.2h-0.1v9.4h-3.6V10.3h3.3
	l0.1,2.2h0.1c0.7-0.8,1.5-1.5,2.5-2c0.9-0.4,1.9-0.6,2.9-0.5c2-0.1,3.9,0.8,5.2,2.4C55.2,14.4,55.9,16.7,55.8,19.1z M43.3,21.7
	c0,1.1,0.5,2.1,1.3,2.7c0.8,0.8,2,1.2,3.1,1.2c1.3,0,2.5-0.6,3.2-1.6c0.9-1.4,1.3-3.1,1.2-4.8c0-4.3-1.5-6.5-4.4-6.5
	c-1.2,0-2.3,0.4-3.1,1.2c-0.8,0.7-1.3,1.7-1.3,2.7L43.3,21.7z"/>
<path class="st0" d="M75.6,19.1c0.1,2.4-0.6,4.8-2,6.7c-1.2,1.6-3.1,2.5-5.1,2.5c-2,0-3.8-0.8-5.2-2.2h-0.1v9.4h-3.6V10.3H63v2.2
	h0.1c0.7-0.8,1.5-1.5,2.5-2c0.9-0.4,1.9-0.6,2.9-0.5c2-0.1,3.9,0.8,5.2,2.4C75.1,14.4,75.7,16.7,75.6,19.1z M63.2,21.7
	c0,1.1,0.5,2.1,1.3,2.7c0.8,0.8,2,1.2,3.1,1.2c1.3,0,2.5-0.6,3.2-1.6c0.9-1.5,1.3-3.2,1.2-4.9c0-4.3-1.5-6.5-4.4-6.5
	c-1.1,0-2.3,0.4-3.1,1.2c-0.8,0.7-1.3,1.7-1.3,2.7L63.2,21.7z"/>
<path class="st0" d="M80.5,12.4c1.6-1.6,3.8-2.5,6.1-2.4c2.3-0.1,4.5,0.7,6.1,2.4c1.6,1.9,2.4,4.3,2.3,6.8c0.2,2.5-0.6,4.9-2.2,6.8
	c-1.6,1.6-3.8,2.5-6.1,2.4c-2.3,0.1-4.5-0.7-6.1-2.4c-1.5-1.6-2.2-3.9-2.2-6.8S79,14,80.5,12.4z M81.9,19.1c0,4.3,1.6,6.5,4.7,6.5
	c3.1,0,4.7-2.2,4.7-6.5s-1.6-6.5-4.7-6.5S81.9,14.9,81.9,19.1z"/>
<path class="st0" d="M110.2,13.2h-0.7c-2.4,0-4.2,0.5-5.4,1.6c-1.2,1.2-1.9,3-1.7,4.7V28h-3.7V10.3h3.6v3.4h0.1
	c0.8-1.1,1.8-1.9,3-2.5c1.3-0.6,2.8-0.9,4.2-0.9h0.7L110.2,13.2z"/>
<path class="st0" d="M120.7,11h6.1v2.7h-6.1v8.2c-0.1,1,0.1,2.1,0.5,3c0.6,0.6,1.4,0.8,2.2,0.7c1,0,2-0.1,2.9-0.4V28
	c-1.2,0.2-2.4,0.3-3.6,0.3c-2.1,0-3.5-0.4-4.4-1.3s-1.2-2.5-1.2-4.8v-8.5h-3.6V11h3.6V4.5h3.6V11z"/>
<path class="st0" d="M145.9,24.1L145.9,24.1c-0.9,1.4-2.5,2.2-4.2,2.2c-1.5,0-3-0.7-3.9-1.9c-1.1-1.5-1.6-3.4-1.5-5.3
	c-0.1-1.9,0.4-3.8,1.5-5.3c1-1.2,2.4-1.9,4-1.8c1.7,0,3.2,0.8,4.2,2.1h0.1v-1.8h3.6v11h3c0.5-1.3,0.8-2.7,0.8-4.1
	c0-5.5-4.5-10-10-10s-10,4.5-10,10c0.1,5.6,4.8,10.1,10.4,10c2,0,3.9-0.7,5.6-1.8l1.7,2.2c-5.2,3.6-12.1,3.1-16.7-1.2
	c-2.5-2.4-3.8-5.7-3.7-9.2c-0.2-6.8,5.1-12.5,11.9-12.7c0.3,0,0.5,0,0.8,0c6.8-0.3,12.5,5,12.8,11.7c0,0.3,0,0.7,0,1
	c0,2.4-0.6,4.8-1.8,6.9H146L145.9,24.1z M139.9,19.1c-0.1,1.1,0.2,2.2,0.8,3.1c0.9,1.2,2.5,1.4,3.7,0.6c0.2-0.2,0.4-0.3,0.6-0.6
	c0.6-0.9,0.9-1.9,0.8-3V19c0.1-1.1-0.2-2.1-0.8-3c-0.5-0.7-1.3-1-2.1-1C140.8,15,139.8,16.4,139.9,19.1L139.9,19.1z"/>
<path class="st0" d="M166,10c2.9,0,4.8,0.5,5.9,1.5s1.6,2.9,1.6,5.6V28h-3.3l-0.1-2.5H170c-1.3,1.9-3.5,3-5.9,2.9
	c-1.4,0-2.8-0.5-3.8-1.5c-1-1.1-1.5-2.5-1.5-4c-0.1-1.8,0.8-3.6,2.3-4.6c1.5-1.1,3.8-1.6,6.9-1.6h2v-0.7c0.1-0.9-0.2-1.8-0.9-2.5
	c-0.9-0.6-2-0.8-3.1-0.7c-2.1,0.1-4.2,0.5-6.1,1.3v-3C161.9,10.4,164,10,166,10z M170,19.1h-1.9c-1.5-0.1-2.9,0.2-4.2,0.9
	c-0.9,0.5-1.4,1.5-1.4,2.5c0,0.8,0.2,1.5,0.8,2.1c0.5,0.5,1.1,0.8,1.8,0.8c1.3,0,2.6-0.5,3.5-1.4c0.9-1,1.4-2.4,1.4-3.8V19.1z"/>
<path class="st0" d="M191.1,15.8V28h-3.5V17.8c0.1-1.4-0.1-2.8-0.6-4.1c-0.5-0.7-1.3-1.1-2.1-1c-0.8,0.1-1.5,0.4-2,1
	c-0.6,0.5-0.9,1.2-1,2V28h-3.6V10.3h3.4l0.1,2h0.1c1-1.4,2.7-2.3,4.4-2.3c0.8,0,1.7,0.2,2.4,0.6c0.7,0.5,1.3,1.3,1.6,2.1h0.1
	c1.1-1.7,2.9-2.7,4.8-2.7c1.5-0.2,3,0.4,4,1.5c0.8,1,1.2,2.8,1.2,5.3V28h-3.5V17.8c0.1-1.4-0.1-2.8-0.6-4.1c-0.5-0.7-1.3-1.1-2.1-1
	c-0.8,0.1-1.5,0.4-2,1C191.5,14.2,191.2,15,191.1,15.8z"/>
<path class="st0" d="M208.5,12.5c1.4-1.6,3.4-2.5,5.5-2.5c1.7-0.1,3.4,0.5,4.5,1.8c1,1.2,1.4,3.1,1.4,5.7V28h-3.5V18
	c0.1-1.4-0.1-2.9-0.8-4.1c-0.7-0.8-1.7-1.2-2.7-1.1c-1.1,0-2.2,0.6-3,1.4c-0.9,0.8-1.4,1.9-1.4,3V28h-3.6V10.3h3.3L208.5,12.5
	L208.5,12.5z"/>
<path class="st0" d="M226,6.2V2.5h3.7v3.7H226z M226,28V10.3h3.7V28H226z"/>
<path class="st0" d="M251.9,19.1c0.1,2.4-0.6,4.8-2,6.7c-1.2,1.6-3.1,2.5-5.1,2.5c-1,0-2-0.2-2.9-0.6c-1-0.5-1.8-1.2-2.5-2h-0.1
	l-0.1,2.2h-3.3V2.5h3.6v9.7h0.1c1.4-1.4,3.2-2.2,5.2-2.2c2-0.1,4,0.8,5.2,2.4C251.4,14.4,252.1,16.7,251.9,19.1z M239.5,21.7
	c0,1.1,0.5,2,1.3,2.7c0.8,0.8,2,1.2,3.1,1.2c1.3,0,2.5-0.6,3.2-1.6c0.9-1.5,1.3-3.2,1.2-4.9c0-4.3-1.5-6.5-4.4-6.5
	c-1.2,0-2.3,0.4-3.1,1.2c-0.8,0.7-1.3,1.7-1.3,2.7V21.7z"/>
<path class="st0" d="M267,25.8c-1.4,1.6-3.4,2.5-5.5,2.5c-1.7,0.2-3.3-0.4-4.5-1.6c-0.9-1.1-1.4-2.9-1.4-5.5V10.3h3.5v10.4
	c-0.1,1.3,0.1,2.7,0.8,3.9c0.6,0.8,1.6,1.1,2.5,1c1.1,0,2.2-0.6,3-1.4c0.9-0.8,1.4-1.8,1.4-3V10.3h3.6V28h-3.3L267,25.8z"/>
<path class="st0" d="M281.9,12.7c-2.4,0-3.6,0.7-3.6,2c0,0.6,0.2,1.2,0.7,1.7c0.7,0.5,1.5,0.9,2.4,1c2.6,0.6,4.4,1.4,5.3,2.2
	c1,1,1.5,2.4,1.4,3.8c0.1,1.4-0.6,2.8-1.8,3.6c-1.5,1-3.4,1.4-5.2,1.3c-2,0-3.9-0.3-5.8-1v-2.9c1.7,0.8,3.6,1.2,5.4,1.2
	c2.5,0,3.7-0.7,3.7-2.2c0-0.7-0.3-1.3-0.7-1.7c-0.8-0.6-1.7-1-2.7-1.2c-1.8-0.3-3.4-1.1-4.9-2.2c-0.9-0.8-1.4-2-1.4-3.3
	c-0.1-1.4,0.6-2.8,1.7-3.7c1.5-1,3.3-1.5,5.1-1.3c2,0,3.9,0.3,5.8,0.9v2.9C285.6,13.1,283.8,12.7,281.9,12.7z"/>
<path class="st0" d="M293.1,28v-5.1h4.4V28H293.1z"/>
<path class="st0" d="M301.9,19.1c0-3,0.7-5.2,2.1-6.8c1.6-1.6,3.7-2.5,6-2.4c1.7,0,3.3,0.2,4.9,0.5v3.1c-1.5-0.5-3.1-0.8-4.7-0.8
	c-1.3-0.1-2.6,0.5-3.5,1.5c-0.9,1.5-1.3,3.2-1.2,4.9c0,2.3,0.4,3.9,1.2,4.9c1,1.1,2.3,1.6,3.8,1.5c1.6,0,3.1-0.3,4.5-1v3.1
	c-1.5,0.5-3.1,0.7-4.8,0.7c-2.3,0.1-4.6-0.7-6.3-2.3C302.7,24.5,301.9,22.2,301.9,19.1z"/>
<path class="st0" d="M320.9,12.4c3.5-3.2,8.8-3.2,12.2,0c1.5,1.6,2.2,3.9,2.2,6.8s-0.7,5.2-2.2,6.8c-3.5,3.2-8.8,3.2-12.2,0
	c-1.6-1.9-2.4-4.3-2.2-6.8C318.6,16.7,319.4,14.3,320.9,12.4z M322.4,19.1c0,4.3,1.6,6.5,4.7,6.5s4.7-2.2,4.7-6.5s-1.6-6.5-4.7-6.5
	S322.4,14.9,322.4,19.1z"/>
<path class="st0" d="M352,15.8V28h-3.5V17.8c0.1-1.4-0.1-2.8-0.6-4.1c-0.5-0.7-1.3-1.1-2.1-1c-0.8,0.1-1.5,0.4-2,1
	c-0.6,0.5-0.9,1.2-1,2V28h-3.7V10.3h3.4l0.1,2h0.1c1.1-1.4,2.7-2.3,4.5-2.3c0.8,0,1.7,0.2,2.4,0.6c0.7,0.5,1.3,1.3,1.6,2.1h0.1
	c1.1-1.6,2.8-2.7,4.8-2.7c1.5-0.2,3,0.4,4,1.5c0.8,1,1.2,2.8,1.2,5.3V28h-3.5V17.8c0.1-1.4-0.1-2.8-0.6-4.1c-0.5-0.7-1.3-1.1-2.1-1
	c-0.8,0.1-1.5,0.4-2,1C352.4,14.2,352,15,352,15.8z"/>
</svg>
