<svg version="1.1" xmlns="http://www.w3.org/2000/svg" xmlns:xlink="http://www.w3.org/1999/xlink" x="0px" y="0px" viewBox="0 0 390.6 37.3" style="enable-background:new 0 0 390.6 37.3;" xml:space="preserve" width="391" height="38">
<style type="text/css">
	.st0{fill:#0d3243;}
</style>
<path class="st0" d="M4.3,6.2V2.5H8v3.7H4.3z M4.3,28V10.3H8V28H4.3z"/>
<path class="st0" d="M17.6,12.5C19,10.9,21,10,23.1,10c1.7-0.1,3.4,0.5,4.5,1.8c1,1.2,1.4,3.1,1.4,5.7V28h-3.5V18
	c0.1-1.4-0.1-2.9-0.8-4.1c-0.7-0.8-1.7-1.2-2.7-1.1c-1.2,0-2.2,0.6-3,1.4c-0.9,0.8-1.4,1.9-1.4,3V28h-3.6V10.3h3.3L17.6,12.5
	L17.6,12.5z"/>
<path class="st0" d="M33.1,13.7V11h3.7V9.6c0-2.3,0.5-4.1,1.5-5.2c1.3-1.2,3-1.8,4.8-1.6c1.1,0,2.2,0.2,3.2,0.5v2.7
	c-0.8-0.3-1.7-0.5-2.5-0.5c-0.9-0.1-1.8,0.2-2.5,0.8c-0.6,0.9-0.8,2-0.7,3.1V11h5.4v2.7h-5.4V28h-3.7V13.7H33.1z"/>
<path class="st0" d="M52.1,12.4c1.6-1.6,3.8-2.5,6.1-2.4c2.3-0.1,4.5,0.7,6.1,2.4c1.6,1.9,2.4,4.3,2.2,6.8c0.2,2.5-0.6,4.9-2.2,6.8
	c-1.6,1.6-3.8,2.5-6.1,2.4c-2.3,0.1-4.5-0.7-6.1-2.4c-1.6-1.9-2.4-4.3-2.2-6.8C49.8,16.7,50.6,14.3,52.1,12.4z M53.6,19.1
	c0,4.3,1.6,6.5,4.7,6.5c3.1,0,4.7-2.2,4.7-6.5c0-4.3-1.6-6.5-4.7-6.5S53.6,14.9,53.6,19.1z"/>
<path class="st0" d="M84.4,24.1L84.4,24.1c-0.9,1.4-2.5,2.2-4.2,2.2c-1.5,0-3-0.7-3.9-1.9c-1.1-1.5-1.6-3.4-1.5-5.3
	c-0.1-1.9,0.4-3.8,1.5-5.3c1-1.2,2.4-1.9,4-1.8c1.7,0,3.2,0.8,4.2,2.1h0.1v-1.8h3.6v11h3c0.5-1.3,0.8-2.7,0.8-4.1
	c0.1-2.7-0.9-5.3-2.8-7.3c-3.9-4-10.3-4.1-14.2-0.2c-2,2-3.1,4.7-3.1,7.5c-0.2,5.3,3.9,9.8,9.2,10c0.3,0,0.5,0,0.8,0
	c2.1,0.1,4.3-0.6,6-1.8l1.6,2.2c-5.2,3.6-12.1,3.1-16.7-1.2c-2.5-2.4-3.8-5.7-3.7-9.2C68.9,12.3,74.2,6.6,81,6.4c0.3,0,0.6,0,0.9,0
	c6.8-0.3,12.5,5,12.8,11.7c0,0.3,0,0.7,0,1c0,2.4-0.6,4.8-1.8,6.9h-8.3L84.4,24.1z M78.4,19.1c-0.1,1.1,0.2,2.2,0.8,3.1
	c0.5,0.7,1.3,1.1,2.1,1.1c0.8,0,1.6-0.3,2.1-1c0.6-0.9,0.9-1.9,0.8-3V19c0.1-1.1-0.2-2.1-0.8-3c-0.5-0.7-1.3-1-2.1-1
	C79.4,15,78.4,16.4,78.4,19.1L78.4,19.1z"/>
<path class="st0" d="M97.1,19.1c0-3,0.7-5.2,2.2-6.8c1.6-1.6,3.7-2.5,6-2.4c1.7,0,3.3,0.2,4.9,0.5v3.1c-1.5-0.5-3.1-0.8-4.7-0.8
	c-1.4-0.1-2.7,0.5-3.5,1.5c-0.9,1.5-1.3,3.2-1.2,4.9c0,2.3,0.4,3.9,1.2,4.9c1,1.1,2.3,1.6,3.8,1.5c1.6,0,3.1-0.3,4.5-1v3.1
	c-1.5,0.5-3.1,0.7-4.8,0.7c-2.3,0.1-4.6-0.7-6.2-2.3C97.9,24.4,97.1,22.2,97.1,19.1z"/>
<path class="st0" d="M126.7,13.2H126c-2.4,0-4.2,0.5-5.4,1.6c-1.2,1.2-1.9,3-1.7,4.7V28h-3.7V10.3h3.6v3.4h0.1
	c0.8-1.1,1.8-1.9,3-2.5c1.3-0.6,2.8-0.9,4.2-0.9h0.7L126.7,13.2z"/>
<path class="st0" d="M133.3,20.2c0.2,3.7,2.1,5.5,5.6,5.5c1.7,0,3.4-0.4,4.9-1.1v3c-1.7,0.5-3.5,0.7-5.3,0.8
	c-2.4,0.1-4.8-0.7-6.5-2.3c-1.5-1.5-2.3-3.8-2.3-6.9s0.7-5.3,2.1-6.9c1.5-1.6,3.7-2.4,5.9-2.3c2.1-0.2,4.1,0.7,5.5,2.2
	c1.2,1.4,1.8,3.7,1.8,6.8c0,0.4,0,0.8-0.1,1.2L133.3,20.2z M133.3,17.5h8.2c-0.1-3.3-1.3-4.9-3.8-4.9c-1.1-0.1-2.3,0.3-3.1,1.2
	C133.7,14.8,133.3,16.2,133.3,17.5z"/>
<path class="st0" d="M155.2,10c2.9,0,4.8,0.5,5.9,1.5s1.6,2.9,1.6,5.6V28h-3.3l-0.1-2.5h-0.1c-1.3,1.9-3.5,3-5.9,2.9
	c-1.4,0-2.8-0.5-3.8-1.5c-1-1.1-1.6-2.5-1.5-4c-0.1-1.8,0.8-3.6,2.3-4.6c1.5-1.1,3.8-1.6,6.9-1.6h1.9v-0.7c0.1-0.9-0.2-1.8-0.9-2.5
	c-0.9-0.6-2-0.8-3.1-0.7c-2.1,0.1-4.2,0.5-6.1,1.3v-3C151,10.3,153.1,10,155.2,10z M159.1,19.1h-1.9c-1.5-0.1-2.9,0.2-4.2,0.9
	c-0.9,0.5-1.4,1.5-1.4,2.5c0,0.8,0.2,1.5,0.8,2.1c0.5,0.5,1.1,0.8,1.8,0.8c1.3,0.1,2.6-0.5,3.6-1.4c0.9-1.1,1.4-2.4,1.3-3.9
	L159.1,19.1z"/>
<path class="st0" d="M173.7,11h6.1v2.7h-6.1v8.2c-0.1,1,0.1,2.1,0.5,3c0.6,0.6,1.4,0.8,2.2,0.7c1,0,2-0.1,2.9-0.4V28
	c-1.2,0.2-2.4,0.3-3.6,0.3c-2.1,0-3.6-0.4-4.4-1.3s-1.2-2.5-1.2-4.8v-8.5h-3.6V11h3.6V4.5h3.6L173.7,11z"/>
<path class="st0" d="M185.9,6.2V2.5h3.7v3.7H185.9z M185.9,28V10.3h3.7V28L185.9,28z"/>
<path class="st0" d="M196.7,12.4c3.5-3.2,8.8-3.2,12.2,0c1.6,1.9,2.4,4.3,2.2,6.8c0.2,2.5-0.6,4.9-2.2,6.8c-3.5,3.2-8.8,3.2-12.2,0
	c-1.5-1.6-2.2-3.9-2.2-6.8S195.2,14,196.7,12.4z M198.1,19.1c0,4.3,1.6,6.5,4.7,6.5c3.1,0,4.7-2.1,4.7-6.5s-1.6-6.5-4.7-6.5
	S198.1,14.9,198.1,19.1z"/>
<path class="st0" d="M218.3,12.5c1.4-1.6,3.4-2.5,5.5-2.5c1.7-0.1,3.4,0.5,4.5,1.8c0.9,1.2,1.4,3.1,1.4,5.7V28h-3.5V18
	c0.1-1.4-0.1-2.9-0.8-4.1c-0.7-0.8-1.7-1.2-2.7-1.1c-1.1,0-2.2,0.6-3,1.4c-0.9,0.8-1.4,1.9-1.4,3V28h-3.6V10.3h3.3L218.3,12.5
	L218.3,12.5z"/>
<path class="st0" d="M233.9,13.7V11h3.7V9.6c0-2.3,0.5-4.1,1.5-5.2c1.3-1.2,3-1.8,4.8-1.6c1.1,0,2.2,0.2,3.2,0.5v2.7
	c-0.8-0.3-1.7-0.5-2.6-0.5c-0.9-0.1-1.8,0.2-2.5,0.8c-0.6,0.9-0.8,2-0.7,3.1V11h5.4v2.7h-5.4V28h-3.7V13.7H233.9z"/>
<path class="st0" d="M251,6.2V2.5h3.7v3.7H251z M251,28V10.3h3.7V28H251z"/>
<path class="st0" d="M272.4,13.2h-0.7c-2.5,0-4.3,0.5-5.4,1.6c-1.2,1.2-1.9,3-1.7,4.7V28h-3.7V10.3h3.6v3.4h0.1
	c0.8-1.1,1.8-1.9,3-2.5c1.3-0.6,2.8-0.9,4.2-0.9h0.7L272.4,13.2z"/>
<path class="st0" d="M289.4,15.8V28h-3.5V17.8c0.1-1.4-0.1-2.8-0.6-4.1c-0.5-0.7-1.3-1.1-2.1-1c-0.8,0.1-1.5,0.4-2,1
	c-0.6,0.5-0.9,1.2-1,2V28h-3.6V10.3h3.4l0.1,2h0.1c1-1.4,2.7-2.3,4.4-2.3c0.8,0,1.7,0.2,2.4,0.6c0.7,0.6,1.3,1.3,1.6,2.1h0.1
	c1.1-1.7,2.9-2.7,4.8-2.7c1.5-0.2,3,0.4,4,1.5c0.8,1,1.2,2.8,1.2,5.3V28h-3.5V17.8c0.1-1.4-0.1-2.8-0.6-4.1c-0.5-0.7-1.3-1.1-2.1-1
	c-0.8,0.1-1.5,0.4-2,1C289.8,14.2,289.5,15,289.4,15.8z"/>
<path class="st0" d="M304.1,28v-5.1h4.4V28H304.1z"/>
<path class="st0" d="M312.9,19.1c0-3,0.7-5.2,2.1-6.8c1.6-1.6,3.7-2.5,6-2.3c1.7,0,3.3,0.2,4.9,0.5v3.1c-1.5-0.5-3.1-0.8-4.7-0.8
	c-1.3-0.1-2.6,0.5-3.5,1.5c-0.9,1.5-1.3,3.2-1.2,4.9c0,2.3,0.4,3.9,1.2,4.9c1,1.1,2.3,1.6,3.8,1.5c1.6,0,3.1-0.3,4.5-1v3.1
	c-1.5,0.5-3.1,0.7-4.8,0.7c-2.3,0.1-4.6-0.7-6.3-2.4C313.6,24.4,312.9,22.2,312.9,19.1z"/>
<path class="st0" d="M331.9,12.4c3.5-3.2,8.8-3.2,12.2,0c1.6,1.9,2.4,4.3,2.2,6.8c0.2,2.5-0.6,4.9-2.2,6.8c-3.5,3.2-8.8,3.2-12.2,0
	c-1.6-1.9-2.4-4.3-2.2-6.8C329.5,16.7,330.3,14.3,331.9,12.4z M333.3,19.1c0,4.3,1.6,6.5,4.7,6.5s4.7-2.2,4.7-6.5
	c0-4.3-1.6-6.5-4.7-6.5S333.3,14.9,333.3,19.1z"/>
<path class="st0" d="M350.7,28v-5.1h4.4V28H350.7z"/>
<path class="st0" d="M357.8,35.5v-3c2.4,0,3.9-0.3,4.5-0.9s1-1.9,1-4V10.3h3.7v17.3c0,1.3-0.1,2.6-0.4,3.9c-0.2,0.9-0.7,1.7-1.4,2.4
	c-0.8,0.7-1.7,1.1-2.8,1.3C360.9,35.4,359.4,35.5,357.8,35.5z M363.3,6.2V2.5h3.7v3.7L363.3,6.2z"/>
<path class="st0" d="M389.1,19.1c0.1,2.4-0.6,4.8-2,6.7c-1.2,1.6-3.1,2.5-5.1,2.5c-2,0-3.8-0.8-5.2-2.2h-0.1v9.4h-3.6V10.3h3.3
	l0.1,2.2h0.1c0.7-0.8,1.5-1.5,2.5-2c0.9-0.4,1.9-0.6,2.9-0.6c2-0.1,3.9,0.8,5.2,2.4C388.5,14.3,389.2,16.7,389.1,19.1z M376.7,21.7
	c0,1.1,0.5,2.1,1.3,2.7c0.8,0.8,2,1.2,3.1,1.2c1.3,0,2.5-0.6,3.2-1.6c0.9-1.4,1.3-3.1,1.2-4.8c0-4.3-1.5-6.5-4.4-6.5
	c-1.1,0-2.2,0.4-3.1,1.2c-0.8,0.7-1.3,1.7-1.3,2.7L376.7,21.7z"/>
</svg>
