<svg version="1.1" xmlns="http://www.w3.org/2000/svg" xmlns:xlink="http://www.w3.org/1999/xlink" x="0px" y="0px" viewBox="0 0 257.9 37.3" style="enable-background:new 0 0 257.9 37.3;" xml:space="preserve" width="258" height="38">
<style type="text/css">
	.st0{fill:#0D3243;}
</style>
<path class="st0" d="M5.5,20.2c0.2,3.7,2.1,5.5,5.6,5.5c1.7,0,3.4-0.4,4.9-1.1v3c-1.7,0.5-3.5,0.7-5.3,0.8C8.3,28.5,6,27.6,4.2,26
	c-1.5-1.5-2.3-3.8-2.3-6.9c0-3,0.7-5.3,2.1-6.8c1.5-1.6,3.7-2.4,5.9-2.3c2.1-0.2,4.1,0.7,5.5,2.2c1.2,1.5,1.8,3.7,1.8,6.8
	c0,0.4,0,0.8-0.1,1.2L5.5,20.2z M5.5,17.5h8.2c-0.1-3.3-1.3-4.9-3.8-4.9c-1.1-0.1-2.3,0.4-3.1,1.2C6,14.8,5.5,16.2,5.5,17.5z"/>
<path class="st0" d="M23.6,10.3L28.1,26h0.1l4.5-15.6h3.7l-6,17.6h-4.8l-6-17.7L23.6,10.3z"/>
<path class="st0" d="M42.3,20.2c0.2,3.7,2.1,5.5,5.6,5.5c1.7,0,3.4-0.4,4.9-1.1v3c-1.7,0.5-3.5,0.7-5.3,0.8
	c-2.4,0.2-4.8-0.7-6.6-2.3c-1.5-1.5-2.3-3.8-2.3-6.9s0.7-5.3,2-6.9c1.6-1.6,3.8-2.5,6-2.3c2.1-0.2,4.1,0.7,5.5,2.2
	c1.2,1.4,1.8,3.7,1.8,6.8c0,0.4,0,0.8-0.1,1.2L42.3,20.2z M42.3,17.5h8.2c-0.1-3.3-1.3-4.9-3.8-4.9c-1.2-0.1-2.3,0.4-3.1,1.2
	C42.8,14.9,42.4,16.2,42.3,17.5z"/>
<path class="st0" d="M61.4,12.5c1.4-1.6,3.4-2.5,5.5-2.5c1.7-0.1,3.4,0.5,4.5,1.8c0.9,1.2,1.4,3.1,1.4,5.7V28h-3.5V18
	c0.1-1.4-0.1-2.9-0.8-4.1C68,13,67,12.6,65.9,12.7c-1.1,0-2.2,0.6-3,1.4c-0.9,0.8-1.4,1.9-1.4,3V28h-3.6V10.3h3.3L61.4,12.5
	L61.4,12.5z"/>
<path class="st0" d="M83.9,11H90v2.7h-6.1v8.2c-0.1,1,0.1,2.1,0.5,3c0.6,0.6,1.4,0.8,2.2,0.7c1,0,2-0.1,2.9-0.4V28
	c-1.2,0.2-2.4,0.3-3.6,0.3c-2.1,0-3.5-0.4-4.4-1.3s-1.2-2.5-1.2-4.8v-8.5h-3.6V11h3.6V4.5h3.6V11z"/>
<path class="st0" d="M109,24.1L109,24.1c-0.9,1.4-2.5,2.2-4.2,2.2c-1.6,0.1-3-0.6-4-1.9c-1.1-1.5-1.6-3.4-1.5-5.3
	c-0.1-1.9,0.4-3.7,1.5-5.3c1-1.2,2.4-1.9,4-1.8c1.7,0,3.3,0.8,4.2,2.1h0.1v-1.8h3.6v11h3c0.5-1.3,0.8-2.7,0.8-4.1
	c0.1-2.7-0.9-5.3-2.8-7.3c-3.9-4-10.3-4.1-14.2-0.2c-2,2-3.1,4.7-3.1,7.5c0.1,5.6,4.8,10.1,10.4,10c2,0,3.9-0.7,5.6-1.8l1.6,2.2
	c-5.2,3.6-12.1,3.1-16.7-1.2c-2.5-2.4-3.8-5.7-3.7-9.2c-0.2-6.8,5.1-12.5,11.9-12.7c0.3,0,0.6,0,0.9,0c3.4-0.1,6.7,1.2,9.2,3.6
	c2.4,2.4,3.7,5.8,3.6,9.2c0,2.4-0.6,4.7-1.8,6.8h-8.3L109,24.1z M103,19.1c-0.1,1.1,0.2,2.2,0.8,3.1c0.5,0.7,1.3,1.1,2.1,1.1
	c0.8,0,1.6-0.3,2.1-1c0.6-0.9,0.9-1.9,0.8-3V19c0.1-1.1-0.2-2.1-0.8-3c-0.5-0.7-1.3-1-2.1-1C104,15,103,16.4,103,19.1L103,19.1z"/>
<path class="st0" d="M124.1,28V2.5h3.7V28H124.1z"/>
<path class="st0" d="M135.1,6.2V2.5h3.7v3.7H135.1z M135.1,28V10.3h3.7V28L135.1,28z"/>
<path class="st0" d="M148.4,12.5c1.4-1.6,3.4-2.5,5.6-2.5c1.7-0.1,3.4,0.5,4.5,1.8c0.9,1.2,1.4,3.1,1.4,5.7V28h-3.5V18
	c0.1-1.4-0.1-2.9-0.8-4.1c-0.6-0.8-1.7-1.3-2.7-1.2c-1.2,0-2.2,0.6-3,1.4c-0.9,0.8-1.4,1.9-1.4,3V28H145V10.3h3.3L148.4,12.5
	L148.4,12.5z"/>
<path class="st0" d="M168.4,19.5L168.4,19.5l-0.1,8.5h-3.6V2.5h3.6v15.6h0.1l7.4-7.8h4.2l-8.1,8.5l8.1,9.2h-4.2L168.4,19.5z"/>
<path class="st0" d="M190.6,12.7c-2.4,0-3.6,0.7-3.6,2c0,0.6,0.2,1.2,0.7,1.7c0.7,0.5,1.5,0.9,2.4,1c2.6,0.6,4.4,1.4,5.3,2.2
	c1,1,1.5,2.4,1.4,3.8c0.1,1.4-0.6,2.8-1.7,3.6c-1.5,1-3.4,1.4-5.2,1.3c-2,0-3.9-0.3-5.8-1v-2.9c1.7,0.8,3.6,1.2,5.4,1.2
	c2.5,0,3.7-0.7,3.7-2.2c0-0.7-0.3-1.3-0.8-1.7c-0.8-0.6-1.7-1-2.6-1.2c-1.8-0.3-3.5-1.1-4.9-2.2c-0.9-0.8-1.4-2-1.4-3.3
	c-0.1-1.5,0.6-2.8,1.7-3.7c1.5-1,3.3-1.5,5-1.3c2,0,3.9,0.3,5.8,0.9v2.9C194.3,13.1,192.5,12.7,190.6,12.7z"/>
<path class="st0" d="M207.4,11h6.1v2.7h-6.1v8.2c-0.1,1,0.1,2.1,0.5,3c0.6,0.6,1.4,0.8,2.2,0.7c1,0,2-0.1,2.9-0.4V28
	c-1.2,0.2-2.4,0.3-3.6,0.3c-2.1,0-3.6-0.4-4.4-1.3s-1.2-2.5-1.2-4.8v-8.5h-3.6V11h3.6V4.5h3.6L207.4,11z"/>
<path class="st0" d="M219.1,28v-5.1h4.4V28H219.1z"/>
<path class="st0" d="M226.2,35.5v-3c2.4,0,3.9-0.3,4.5-0.9s0.9-1.9,0.9-4V10.3h3.7v17.3c0,1.3-0.1,2.6-0.4,3.9
	c-0.2,0.9-0.7,1.7-1.4,2.4c-0.8,0.7-1.7,1.1-2.8,1.3C229.3,35.4,227.8,35.5,226.2,35.5z M231.7,6.2V2.5h3.7v3.7L231.7,6.2z"/>
<path class="st0" d="M257.5,19.1c0.1,2.4-0.6,4.8-2,6.7c-1.2,1.6-3.1,2.5-5.1,2.5c-2,0-3.8-0.8-5.2-2.2h-0.1v9.4h-3.6V10.3h3.3
	l0.1,2.2h0.1c0.7-0.8,1.5-1.5,2.5-2c0.9-0.4,1.9-0.6,2.9-0.6c2-0.1,3.9,0.8,5.2,2.4C257,14.4,257.6,16.7,257.5,19.1z M245.1,21.7
	c0,1.1,0.5,2.1,1.3,2.7c0.8,0.8,2,1.2,3.1,1.2c1.3,0,2.5-0.6,3.2-1.6c0.9-1.4,1.3-3.1,1.2-4.8c0-4.3-1.5-6.5-4.4-6.5
	c-1.1,0-2.3,0.4-3.1,1.2c-0.8,0.7-1.3,1.7-1.3,2.7V21.7z"/>
</svg>
