<svg version="1.1" xmlns="http://www.w3.org/2000/svg" xmlns:xlink="http://www.w3.org/1999/xlink" x="0px" y="0px" viewBox="0 0 353.6 37.3" style="enable-background:new 0 0 353.6 37.3;" xml:space="preserve" width="354" height="38">
<style type="text/css">
	.st0{fill:#0D3243;}
</style>
<path class="st0" d="M4.3,6.2V2.5H8v3.7H4.3z M4.3,28V10.3H8V28H4.3z"/>
<path class="st0" d="M17.6,12.5C19,10.9,21,10,23.1,10c1.7-0.1,3.4,0.5,4.5,1.8c1,1.2,1.4,3.1,1.4,5.7V28h-3.5V18
	c0.1-1.4-0.1-2.9-0.8-4.1c-0.7-0.8-1.7-1.2-2.7-1.1c-1.2,0-2.2,0.6-3,1.4c-0.9,0.8-1.4,1.9-1.4,3V28h-3.6V10.3h3.3L17.6,12.5
	L17.6,12.5z"/>
<path class="st0" d="M40.1,11h6.1v2.7h-6.1v8.2c-0.1,1,0.1,2.1,0.5,3c0.6,0.6,1.4,0.8,2.2,0.7c1,0,2-0.1,2.9-0.4V28
	c-1.2,0.2-2.4,0.3-3.6,0.3c-2.1,0-3.5-0.4-4.4-1.3s-1.2-2.5-1.2-4.8v-8.5H33V11h3.6V4.5h3.6L40.1,11z"/>
<path class="st0" d="M52.3,28V2.5h3.7V28H52.3z"/>
<path class="st0" d="M78.3,19.1c0.1,2.4-0.6,4.8-2,6.7c-1.2,1.6-3.1,2.5-5.1,2.5c-1,0-2-0.2-2.9-0.6c-1-0.5-1.8-1.2-2.5-2h-0.1
	L65.6,28h-3.3V2.5h3.6v9.7h0.1c1.4-1.4,3.2-2.2,5.2-2.2c2-0.1,3.9,0.8,5.2,2.4C77.7,14.4,78.4,16.7,78.3,19.1z M65.9,21.7
	c0,1.1,0.5,2.1,1.3,2.7c0.8,0.8,2,1.2,3.1,1.2c1.3,0,2.5-0.6,3.2-1.6c0.9-1.5,1.3-3.2,1.2-4.9c0-4.3-1.5-6.5-4.4-6.5
	c-1.2,0-2.3,0.4-3.1,1.2c-0.8,0.7-1.3,1.7-1.3,2.7L65.9,21.7z"/>
<path class="st0" d="M83.3,6.2V2.5h3.7v3.7H83.3z M83.3,28V10.3h3.7V28L83.3,28z"/>
<path class="st0" d="M93.2,10.3h13.6V13l-9.3,12.2v0.1h9.3V28H93.2v-2.7l9.3-12.2V13h-9.3V10.3z"/>
<path class="st0" d="M125.8,24.1L125.8,24.1c-0.9,1.4-2.5,2.2-4.2,2.2c-1.5,0-3-0.7-3.9-1.9c-1.1-1.5-1.6-3.4-1.5-5.3
	c-0.1-1.9,0.4-3.8,1.5-5.3c1-1.2,2.4-1.9,4-1.8c1.7,0,3.2,0.8,4.2,2.1h0.1v-1.8h3.6v11h3c0.5-1.3,0.8-2.7,0.8-4.1
	c0.1-2.7-0.9-5.3-2.8-7.3c-3.9-4-10.3-4.1-14.2-0.2c-2,2-3.1,4.7-3.1,7.5c0.1,5.6,4.8,10.1,10.4,10c2,0,3.9-0.7,5.6-1.8l1.6,2.2
	c-5.2,3.6-12.1,3.1-16.7-1.2c-2.5-2.4-3.8-5.7-3.7-9.2c0-7,5.7-12.8,12.8-12.8c7,0,12.8,5.7,12.8,12.8c0,2.4-0.6,4.8-1.8,6.9h-8.3
	L125.8,24.1z M119.8,19.1c-0.1,1.1,0.2,2.2,0.8,3.1c0.9,1.2,2.5,1.4,3.7,0.6c0.2-0.2,0.4-0.3,0.6-0.6c0.6-0.9,0.9-1.9,0.8-3V19
	c0.1-1.1-0.2-2.1-0.8-3c-0.5-0.7-1.3-1-2.1-1C120.7,15,119.8,16.4,119.8,19.1L119.8,19.1z"/>
<path class="st0" d="M138.5,19.1c0-3,0.7-5.2,2.1-6.8c1.6-1.6,3.7-2.5,6-2.4c1.7,0,3.3,0.2,4.9,0.5v3.1c-1.5-0.5-3.1-0.8-4.7-0.8
	c-1.3-0.1-2.6,0.5-3.5,1.5c-0.9,1.5-1.3,3.2-1.2,4.9c0,2.3,0.4,3.9,1.2,4.9c1,1.1,2.4,1.6,3.8,1.5c1.6,0,3.1-0.3,4.5-1v3.1
	c-1.5,0.5-3.1,0.7-4.8,0.7c-2.3,0.1-4.6-0.7-6.3-2.3C139.2,24.4,138.5,22.2,138.5,19.1z"/>
<path class="st0" d="M168.1,13.2h-0.7c-2.5,0-4.3,0.5-5.4,1.6c-1.2,1.2-1.9,3-1.7,4.7V28h-3.7V10.3h3.6v3.4h0.1
	c0.8-1.1,1.8-1.9,3-2.5c1.3-0.6,2.8-0.9,4.2-0.9h0.7L168.1,13.2z"/>
<path class="st0" d="M179,23.9L179,23.9l5-13.6h3.6l-10,25.2H174l3.2-7.5l-6.3-17.7h3.7L179,23.9z"/>
<path class="st0" d="M207.1,19.1c0.1,2.4-0.6,4.8-2,6.7c-1.2,1.6-3.1,2.5-5.1,2.5c-2,0-3.9-0.8-5.2-2.2h-0.1v9.4h-3.6V10.3h3.3
	l0.1,2.2h0.1c0.7-0.8,1.5-1.5,2.5-2c0.9-0.4,1.9-0.6,2.9-0.6c2-0.1,3.9,0.8,5.2,2.4C206.5,14.3,207.2,16.7,207.1,19.1z M194.7,21.7
	c0,1.1,0.5,2.1,1.3,2.7c0.8,0.8,2,1.2,3.1,1.2c1.3,0,2.5-0.6,3.2-1.6c0.9-1.4,1.3-3.1,1.2-4.8c0-4.3-1.5-6.5-4.4-6.5
	c-1.1,0-2.2,0.4-3.1,1.2c-0.8,0.7-1.3,1.7-1.3,2.7L194.7,21.7z"/>
<path class="st0" d="M217.2,11h6.1v2.7h-6.1v8.2c-0.1,1,0.1,2.1,0.6,3c0.6,0.6,1.4,0.8,2.2,0.7c1,0,2-0.1,2.9-0.4V28
	c-1.2,0.2-2.4,0.3-3.6,0.3c-2.1,0-3.5-0.4-4.4-1.3s-1.2-2.5-1.2-4.8v-8.5h-3.6V11h3.6V4.5h3.6L217.2,11z"/>
<path class="st0" d="M229.3,12.4c3.5-3.2,8.8-3.2,12.2,0c1.6,1.9,2.4,4.3,2.2,6.8c0.2,2.5-0.6,4.9-2.2,6.8c-3.5,3.2-8.8,3.2-12.2,0
	c-1.6-1.9-2.4-4.3-2.2-6.8C226.9,16.7,227.7,14.3,229.3,12.4z M230.7,19.1c0,4.3,1.6,6.5,4.7,6.5c3.1,0,4.7-2.2,4.7-6.5
	c0-4.3-1.6-6.5-4.7-6.5S230.7,14.9,230.7,19.1L230.7,19.1z"/>
<path class="st0" d="M250.9,12.5c1.4-1.6,3.4-2.5,5.5-2.5c1.7-0.2,3.4,0.5,4.6,1.7c0.9,1.2,1.4,3.1,1.4,5.7V28H259V18
	c0.1-1.4-0.1-2.9-0.8-4.1c-0.7-0.8-1.7-1.2-2.7-1.1c-1.2,0-2.2,0.6-3,1.4c-0.9,0.8-1.4,1.8-1.4,3V28h-3.6V10.3h3.3L250.9,12.5
	L250.9,12.5z"/>
<path class="st0" d="M267.8,28v-5.1h4.4V28H267.8z"/>
<path class="st0" d="M276.6,19.1c0-3,0.7-5.2,2.1-6.8c1.6-1.6,3.7-2.5,6-2.4c1.7,0,3.3,0.2,4.9,0.5v3.1c-1.5-0.5-3.1-0.8-4.7-0.8
	c-1.3-0.1-2.6,0.5-3.5,1.5c-0.9,1.5-1.3,3.2-1.2,4.9c0,2.3,0.4,3.9,1.2,4.9c1,1.1,2.3,1.6,3.8,1.5c1.6,0,3.1-0.3,4.5-1v3.1
	c-1.5,0.5-3.1,0.7-4.8,0.7c-2.3,0.1-4.6-0.7-6.3-2.3C277.3,24.5,276.6,22.2,276.6,19.1z"/>
<path class="st0" d="M295.6,12.4c3.5-3.2,8.8-3.2,12.2,0c1.5,1.6,2.2,3.9,2.2,6.8s-0.7,5.2-2.2,6.8c-3.5,3.2-8.8,3.2-12.2,0
	c-1.6-1.9-2.4-4.3-2.2-6.8C293.2,16.7,294,14.3,295.6,12.4z M297,19.1c0,4.3,1.6,6.5,4.7,6.5s4.7-2.2,4.7-6.5s-1.6-6.5-4.7-6.5
	S297,14.9,297,19.1z"/>
<path class="st0" d="M314.5,28v-5.1h4.4V28H314.5z"/>
<path class="st0" d="M321.5,35.5v-3c2.4,0,3.9-0.3,4.5-0.9s1-1.9,1-4V10.3h3.7v17.3c0,1.3-0.1,2.6-0.4,3.9c-0.2,0.9-0.7,1.7-1.4,2.4
	c-0.8,0.7-1.7,1.1-2.8,1.3C324.7,35.4,323.1,35.5,321.5,35.5z M327,6.2V2.5h3.7v3.7H327z"/>
<path class="st0" d="M352.8,19.1c0.1,2.4-0.6,4.8-2,6.7c-1.2,1.6-3.1,2.5-5.1,2.5c-2,0-3.8-0.8-5.2-2.2h-0.1v9.4h-3.6V10.3h3.3
	l0.1,2.2h0.1c0.7-0.8,1.5-1.5,2.5-2c0.9-0.4,1.9-0.6,2.9-0.6c2-0.1,3.9,0.8,5.2,2.4C352.3,14.3,353,16.7,352.8,19.1z M340.4,21.7
	c0,1.1,0.5,2.1,1.3,2.7c0.8,0.8,2,1.2,3.1,1.2c1.3,0,2.5-0.6,3.2-1.6c0.9-1.4,1.3-3.1,1.2-4.8c0-4.3-1.5-6.5-4.4-6.5
	c-1.1,0-2.3,0.4-3.1,1.2c-0.8,0.7-1.3,1.7-1.3,2.7L340.4,21.7z"/>
</svg>
