<svg version="1.1" id="layer" xmlns="http://www.w3.org/2000/svg" viewBox="0 0 394.2 35.8" width="394" height="36">
<style type="text/css">
	.st0{fill:#27465C;}
</style>
<title>mail_textalive</title>
<path class="st0" d="M10,25.3v2.3l-1.6,0.1c-3.2,0.2-5.1-1-5.1-4.6V10.6H0V8.2h3.3V3.5l3-0.7v5.4h4.4v2.5H6.3v11.5
	c0,2.4,0.6,3.2,2.6,3.2L10,25.3z"/>
<path class="st0" d="M24.2,25.5c2,0,4-0.4,5.9-1.2l0.6,2.5c-2.1,0.9-4.4,1.3-6.7,1.3c-6.3,0-9.6-3.7-9.6-10.1
	c0-6.2,3.2-10.8,9.1-10.8c5.1,0,7.5,3.3,7.5,8.9V18H17.4C17.2,23.4,20.1,25.5,24.2,25.5L24.2,25.5z M23.1,9.8c-3.2,0-5.2,2.7-5.6,6
	h10.6C28,11.9,26.6,9.8,23.1,9.8L23.1,9.8z"/>
<path class="st0" d="M34.5,8h3.6l5,7.7l5-7.7h3.5l-6.8,9.7l6.9,10h-3.6L43,19.8l-5,7.8h-3.5l6.7-9.8L34.5,8z"/>
<path class="st0" d="M63.8,25.3v2.3l-1.6,0.1c-3.2,0.2-5.1-1-5.1-4.6V10.6h-3.3V8.2h3.3V3.5l3-0.7v5.4h4.4v2.5h-4.4v11.5
	c0,2.4,0.6,3.2,2.6,3.2L63.8,25.3z"/>
<path class="st0" d="M84.1,27.4l-2.6,0.5c-0.8-1-1.3-2.3-1.4-3.5c-1.2,2.3-3.7,3.8-6.3,3.7c-3.1,0-6.3-1.6-6.3-5.9
	c0-4.6,2.4-6.1,12.2-6.6v-1.7c0-2.3-0.4-3.9-3.9-3.9c-2.1,0-4.2,0.6-6,1.7l-0.7-2.6c2.2-1.1,4.6-1.6,7.1-1.7c5.1,0,6.5,2.2,6.5,6.4
	v7.9C82.6,24.2,83.1,26.3,84.1,27.4z M70.4,22c0,2.9,2.4,3.5,3.9,3.5c2.5,0,4.8-1.7,5.4-4.1v-3.5C72.5,18.3,70.4,19,70.4,22z"/>
<path class="st0" d="M92.8,27.6h-3.1V0.5L92.8,0V27.6z"/>
<path class="st0" d="M103.1,4.4h-3.4V1.3h3.4V4.4z M103,27.6h-3.1V8h3.1V27.6z"/>
<path class="st0" d="M122.3,8h3.3l-7.6,19.6h-2.8L107.4,8h3.3l5.8,15.8L122.3,8z"/>
<path class="st0" d="M138.7,25.5c2,0,4-0.4,5.9-1.2l0.6,2.5c-2.1,0.9-4.4,1.3-6.7,1.3c-6.3,0-9.6-3.7-9.6-10.1
	c0-6.2,3.2-10.8,9.1-10.8c5.1,0,7.5,3.3,7.5,8.9V18h-13.6C131.7,23.4,134.6,25.5,138.7,25.5L138.7,25.5z M137.6,9.8
	c-3.2,0-5.2,2.7-5.6,6h10.6C142.6,11.9,141.1,9.8,137.6,9.8L137.6,9.8z"/>
<path class="st0" d="M158,15v2.6h-8.1V15H158z"/>
<path class="st0" d="M173.1,7.6c2.9,0,4.5,1.2,5.3,3c1.9-1.8,4.5-2.9,7.1-3c4.7,0,6.3,2.9,6.3,6.9v13h-3.1V15.3
	c0-2.7-0.8-5.1-4.1-5.1c-2.1,0.1-4.1,1-5.6,2.5c0.2,1.1,0.3,2.1,0.3,3.2v11.7h-3V15.3c0-2.7-0.8-5.1-4.1-5.1c-2.1,0.1-4,1-5.4,2.6
	v14.8h-3.1V12c0-1.3-0.1-2.6-0.5-3.8l2.8-0.4c0.3,0.9,0.5,1.9,0.6,2.9C168.3,8.8,170.6,7.7,173.1,7.6z"/>
<path class="st0" d="M202,27.6h-3.1V0.5L202,0V27.6z"/>
<path class="st0" d="M219.9,22.4c-3.3,0-4.6-2.2-4.6-5.5c0-4.6,2.2-9.9,7-9.9c1.7-0.2,3.4,1,3.7,2.7l0.6-1.9h1.9l-1.7,8.4
	c-0.2,0.9-0.4,1.8-0.4,2.7c0,0.8,0.2,1.5,1.4,1.5c2.8,0,4.5-3.7,4.5-7.2c0-5.9-4.4-9.3-10.1-9.3c-6.2,0-10.9,5.2-10.9,11.5
	c0,6.5,4.3,10.6,10.8,10.6c3,0,6-0.6,8.7-1.8l0.6,2c-2.9,1.4-6.1,2.1-9.3,2c-8.1,0-13.5-5.1-13.5-12.9c0-7.4,5.9-13.4,13.3-13.4
	c0.1,0,0.1,0,0.2,0c7.1,0,12.5,4.4,12.5,11.4c0,5.6-3.4,9.3-7.3,9.3c-1.9,0-2.9-1.2-2.9-3.2C223.6,21,221.9,22.2,219.9,22.4z
	 M217.9,16.5c0,2.3,0.7,3.7,2.4,3.7c2.9,0,4.3-3.7,4.9-7.9c0-2.3-0.7-3.5-2.7-3.5C219.4,8.8,217.9,13.5,217.9,16.5L217.9,16.5z"/>
<path class="st0" d="M255.9,27.4l-2.6,0.5c-0.8-1-1.3-2.3-1.4-3.5c-1.2,2.3-3.7,3.8-6.3,3.7c-3.1,0-6.3-1.6-6.3-5.9
	c0-4.6,2.4-6.1,12.2-6.6v-1.7c0-2.3-0.4-3.9-3.9-3.9c-2.1,0-4.2,0.6-6,1.7l-0.7-2.6c2.2-1.1,4.6-1.6,7.1-1.7c5.1,0,6.5,2.2,6.5,6.4
	v7.9C254.4,24.2,254.9,26.3,255.9,27.4z M242.2,22c0,2.9,2.4,3.5,3.9,3.5c2.5,0,4.8-1.7,5.4-4.1v-3.5C244.3,18.3,242.2,19,242.2,22z
	"/>
<path class="st0" d="M264.7,4.4h-3.4V1.3h3.4V4.4z M264.5,27.6h-3.1V8h3.1V27.6z"/>
<path class="st0" d="M281.7,11c-1.4-0.7-3-1.1-4.6-1.1c-1.4,0-3.5,0.6-3.5,2.8c0,1.7,1.1,2.3,3.8,3.5c3,1.3,5.4,2.7,5.4,6
	c0,4.5-3.3,5.8-6.3,5.8c-2.3,0-4.5-0.4-6.6-1.2l0.7-2.7c1.8,0.8,3.7,1.2,5.6,1.2c1.9,0,3.6-0.6,3.6-3.1c0-1.8-1.5-2.8-4.5-4
	c-2.8-1.2-4.7-2.3-4.7-5.5c0-4.3,3.7-5.4,6.5-5.4c1.8,0,3.7,0.3,5.4,1L281.7,11z"/>
<path class="st0" d="M295.8,25.3v2.3l-1.6,0.1c-3.2,0.2-5.1-1-5.1-4.6V10.6h-3.3V8.2h3.3V3.5l3-0.7v5.4h4.4v2.5h-4.4v11.5
	c0,2.4,0.6,3.2,2.6,3.2L295.8,25.3z"/>
<path class="st0" d="M304.1,27.6h-3.4v-3.9h3.4V27.6z"/>
<path class="st0" d="M318,33.1c4.4,0,5.7-2.8,5.7-5.4v-3.1c-1.4,2.2-3.9,3.5-6.5,3.4c-4.7,0-7.6-3.3-7.6-9.8c0-5.7,2-10.8,8.2-10.8
	c2.3,0,4.5,0.9,6.1,2.6c0-0.7,0.1-1.4,0.3-2.1h2.8c-0.2,1.2-0.3,2.4-0.3,3.6V28c0,5.2-3.8,7.6-8.7,7.6c-2.5,0-5-0.6-7.3-1.6l0.7-2.6
	C313.4,32.5,315.7,33,318,33.1z M323.7,15.4c0-0.9,0-1.8-0.2-2.7c-1.3-1.7-3.2-2.6-5.3-2.6c-4,0-5.5,3.2-5.5,8.1
	c0,4.1,1.5,7.2,5.1,7.2c2.5,0,4.8-1.4,5.8-3.7c0.1-0.8,0.2-1.6,0.2-2.4L323.7,15.4z"/>
<path class="st0" d="M351.1,17.7c0,5.2-2.1,10.5-9.2,10.5c-7,0-9.2-5.4-9.2-10.6c0-5.1,2.2-10.4,9.2-10.4
	C348.9,7.3,351.1,12.6,351.1,17.7L351.1,17.7z M341.9,25.6c4,0,6-2.8,6-8c0-5.1-2-7.8-6.1-7.8s-6.1,2.7-6.1,7.8
	C335.8,22.8,337.9,25.6,341.9,25.6L341.9,25.6z"/>
<path class="st0" d="M360,27.6h-3.4v-3.9h3.4V27.6z"/>
<path class="st0" d="M369.9,8v18.2c0,4.9-1.6,7.8-5.3,9.6l-1.8-2.1c3.2-1.6,4.1-3.9,4.1-8V8H369.9z M370,4.4h-3.4V1.3h3.4V4.4z"/>
<path class="st0" d="M386.6,7.5c4.7,0,7.6,3.3,7.6,9.8c0,5.7-2,10.8-8.2,10.8c-2.2,0-4.3-0.9-5.9-2.5v9.9h-3V12
	c0-1.3-0.1-2.6-0.5-3.8l2.8-0.4c0.4,1,0.6,2.1,0.7,3.2C381.5,8.7,384,7.4,386.6,7.5L386.6,7.5z M380,20.1c0,0.9,0,1.8,0.2,2.7
	c1.2,1.7,3.2,2.7,5.3,2.7c4,0,5.5-3.2,5.5-8.1c0-4.1-1.4-7.2-5.1-7.2c-2.5,0-4.8,1.4-5.8,3.7c-0.1,0.8-0.2,1.7-0.2,2.5L380,20.1z"/>
</svg>