<svg version="1.1" id="layer" xmlns="http://www.w3.org/2000/svg" viewBox="0 0 394 35" width="394" height="35">
<style type="text/css">
	.st0{fill:#27465C;}
</style>
<path class="st0" d="M23,6.4c4.7,0,7.6,3.3,7.6,9.8c0,5.7-2,10.8-8.2,10.8c-2.2,0-4.3-0.9-5.9-2.5v9.9h-3V10.9
	c0-1.3-0.1-2.6-0.5-3.8l2.8-0.4c0.4,1,0.6,2.1,0.7,3.2C17.9,7.8,20.4,6.4,23,6.4z M16.4,19c0,0.9,0,1.8,0.2,2.7
	c1.2,1.7,3.2,2.7,5.3,2.7c4,0,5.5-3.2,5.5-8.1c0-4.1-1.4-7.2-5.1-7.2c-2.5,0-4.8,1.4-5.8,3.7c-0.1,0.8-0.2,1.7-0.2,2.5L16.4,19z"/>
<path class="st0" d="M39.8,3.3h-3.4v-3h3.4V3.3z M39.7,26.6h-3.1V6.9h3.1V26.6z"/>
<path class="st0" d="M61.6,26.4L59,26.9c-0.8-1-1.3-2.2-1.4-3.5c-1.2,2.3-3.7,3.8-6.3,3.7c-3.1,0-6.3-1.6-6.3-5.9
	c0-4.6,2.4-6.1,12.2-6.6v-1.7c0-2.3-0.4-3.9-3.9-3.9c-2.1,0-4.2,0.6-6,1.7l-0.7-2.6c2.2-1.1,4.6-1.6,7.1-1.7c5.1,0,6.5,2.2,6.5,6.4
	v7.9C60.1,23.1,60.6,25.3,61.6,26.4z M47.9,21c0,2.9,2.4,3.5,3.9,3.5c2.5,0,4.7-1.7,5.4-4.1v-3.5C50,17.3,47.9,18,47.9,21z"/>
<path class="st0" d="M76.8,6.4c4.7,0,7.6,3.3,7.6,9.8c0,5.7-2,10.8-8.2,10.8c-2.2,0-4.3-0.9-5.9-2.5v9.9h-3V10.9
	c0-1.3-0.1-2.6-0.5-3.8l2.8-0.4c0.4,1,0.6,2.1,0.7,3.2C71.7,7.7,74.2,6.4,76.8,6.4z M70.2,19c0,0.9,0,1.8,0.2,2.7
	c1.2,1.7,3.2,2.7,5.3,2.7c4,0,5.5-3.2,5.5-8.1c0-4.1-1.4-7.2-5.1-7.2c-2.5,0-4.8,1.4-5.8,3.7c-0.1,0.8-0.2,1.7-0.2,2.5L70.2,19z"/>
<path class="st0" d="M100,6.7l-0.2,2.8c-2.4,0-5.2,1-6.2,3.4v13.8h-3.1V12.1c0-1.7-0.1-3.4-0.5-5l2.8-0.4c0.4,1.1,0.6,2.2,0.7,3.3
	C94.6,7.9,97.3,6.7,100,6.7z"/>
<path class="st0" d="M121.4,16.8c0,5.2-2.1,10.5-9.2,10.5c-7,0-9.2-5.4-9.2-10.6c0-5.1,2.2-10.4,9.2-10.4
	C119.2,6.3,121.4,11.6,121.4,16.8z M112.2,24.5c4,0,6-2.8,6-8c0-5.1-2-7.8-6.1-7.8s-6,2.8-6,7.9C106.1,21.9,108.2,24.5,112.2,24.5z"
	/>
<path class="st0" d="M138.2,21.4c-3.3,0-4.6-2.2-4.6-5.5c0-4.6,2.2-9.9,7-9.9c1.7-0.2,3.3,1,3.7,2.7l0.6-1.9h1.9l-1.7,8.4
	c-0.2,0.9-0.4,1.8-0.4,2.7c0,0.8,0.2,1.5,1.4,1.5c2.8,0,4.5-3.7,4.5-7.2c0-5.9-4.4-9.3-10.1-9.3c-6.2,0-10.9,5.2-10.9,11.5
	c0,6.5,4.3,10.6,10.8,10.6c3,0,6-0.6,8.7-1.8l0.6,2c-2.9,1.4-6.1,2.1-9.3,2c-8.1,0-13.5-5.1-13.5-12.9C126.8,7,132.8,1,140.1,0.9
	l0,0h0.3c7.1,0,12.5,4.4,12.5,11.4c0,5.6-3.4,9.3-7.3,9.3c-1.9,0-2.9-1.2-2.9-3.2C141.8,20,140.1,21.2,138.2,21.4z M136.2,15.5
	c0,2.3,0.7,3.7,2.4,3.7c2.9,0,4.3-3.7,4.9-7.9c0-2.3-0.7-3.5-2.7-3.5C137.7,7.8,136.2,12.4,136.2,15.5z"/>
<path class="st0" d="M158.1,17c0-5.7,2.3-10.6,9.5-10.6c1.6,0,3.1,0.2,4.6,0.7l-0.6,2.7c-1.2-0.5-2.6-0.7-3.9-0.7
	c-4.7,0-6.4,3.5-6.4,8c0,4.2,1.7,7.5,6.5,7.5c1.4,0,2.8-0.2,4.1-0.7l0.4,2.7c-1.5,0.5-3.1,0.7-4.7,0.7
	C160.4,27.1,158.1,22.3,158.1,17L158.1,17z"/>
<path class="st0" d="M187,6.7l-0.2,2.8c-2.4,0-5.2,1-6.2,3.4v13.8h-3.1V12.1c0-1.7-0.1-3.4-0.5-5l2.8-0.4c0.4,1.1,0.6,2.2,0.7,3.3
	C181.6,7.9,184.3,6.7,187,6.7z"/>
<path class="st0" d="M202.8,6.9h3.4c-1.7,5.1-4.7,13.5-6.8,18.9c-1.8,4.4-3.5,7.3-5,8.8l-3-1.3c2.2-2.3,3.9-5,5-7.9l-7.8-18.5h3.4
	l5.9,15.1C199.7,17.4,201.6,11.1,202.8,6.9z"/>
<path class="st0" d="M220.3,6.4c4.7,0,7.6,3.3,7.6,9.8c0,5.7-2,10.8-8.2,10.8c-2.2,0-4.3-0.9-5.9-2.5v9.9h-3V10.9
	c0-1.3-0.1-2.6-0.5-3.8l2.8-0.4c0.4,1,0.6,2.1,0.7,3.2C215.2,7.7,217.7,6.4,220.3,6.4L220.3,6.4z M213.7,19c0,0.9,0,1.8,0.2,2.7
	c1.2,1.7,3.2,2.7,5.3,2.7c4,0,5.5-3.2,5.5-8.1c0-4.1-1.4-7.2-5.1-7.2c-2.5,0-4.8,1.4-5.8,3.7c-0.1,0.8-0.2,1.7-0.2,2.5L213.7,19z"/>
<path class="st0" d="M241.2,24.3v2.3l-1.6,0.1c-3.2,0.2-5.1-1-5.1-4.6V9.6h-3.3V7.2h3.3V2.5l3-0.7v5.4h4.4v2.5h-4.4v11.5
	c0,2.4,0.6,3.2,2.6,3.2L241.2,24.3z"/>
<path class="st0" d="M263.9,16.8c0,5.2-2.1,10.5-9.2,10.5c-7,0-9.2-5.4-9.2-10.6c0-5.1,2.2-10.4,9.2-10.4
	C261.7,6.3,263.9,11.6,263.9,16.8z M254.7,24.5c4,0,6-2.8,6-8c0-5.1-2-7.8-6.1-7.8s-6.1,2.7-6.1,7.8
	C248.6,21.9,250.7,24.5,254.7,24.5z"/>
<path class="st0" d="M272.3,6.8c0.4,0.9,0.6,1.8,0.6,2.8c1.8-1.8,4.2-2.9,6.7-2.9c4.7,0,6.3,2.9,6.3,6.9v13h-3.1V14.3
	c0-2.7-0.8-5.1-4.1-5.1c-2.2,0.1-4.2,1-5.7,2.6v14.8h-3.1V10.9c0-1.3-0.1-2.6-0.5-3.8L272.3,6.8z"/>
<path class="st0" d="M295.8,26.5h-3.4v-3.9h3.4V26.5z"/>
<path class="st0" d="M301.2,17c0-5.7,2.3-10.6,9.5-10.6c1.6,0,3.1,0.2,4.6,0.7l-0.6,2.7c-1.2-0.5-2.6-0.7-3.9-0.7
	c-4.7,0-6.4,3.5-6.4,8c0,4.2,1.7,7.5,6.5,7.5c1.4,0,2.8-0.2,4.1-0.7l0.4,2.7c-1.5,0.5-3.1,0.7-4.7,0.7
	C303.5,27.1,301.2,22.3,301.2,17z"/>
<path class="st0" d="M337.9,16.8c0,5.2-2.1,10.5-9.2,10.5c-7,0-9.2-5.4-9.2-10.6c0-5.1,2.2-10.4,9.2-10.4
	C335.7,6.3,337.9,11.6,337.9,16.8z M328.7,24.5c4,0,6-2.8,6-8c0-5.1-2-7.8-6.1-7.8s-6.1,2.7-6.1,7.8
	C322.6,21.8,324.6,24.5,328.7,24.5z"/>
<path class="st0" d="M346.7,26.5h-3.4v-3.9h3.4V26.5z"/>
<path class="st0" d="M356.7,6.9v18.2c0,4.9-1.6,7.8-5.3,9.6l-1.8-2.1c3.2-1.6,4.1-3.9,4.1-8V6.9H356.7z M356.8,3.3h-3.4v-3h3.4V3.3z
	"/>
<path class="st0" d="M373.4,6.4c4.7,0,7.6,3.3,7.6,9.8c0,5.7-2,10.8-8.2,10.8c-2.2,0-4.3-0.9-5.9-2.5v9.9h-3V10.9
	c0-1.3-0.1-2.6-0.5-3.8l2.8-0.4c0.4,1,0.6,2.1,0.7,3.2C368.3,7.7,370.8,6.4,373.4,6.4z M366.8,19c0,0.9,0,1.8,0.2,2.7
	c1.2,1.7,3.2,2.7,5.3,2.7c4,0,5.5-3.2,5.5-8.1c0-4.1-1.4-7.2-5.1-7.2c-2.5,0-4.8,1.4-5.8,3.7c-0.1,0.8-0.2,1.7-0.2,2.5L366.8,19z"/>
</svg>
