<svg version="1.1" xmlns="http://www.w3.org/2000/svg" xmlns:xlink="http://www.w3.org/1999/xlink" x="0px" y="0px" viewBox="0 0 320 85" style="enable-background:new 0 0 320 85;" xml:space="preserve" width="320" height="85">
<style type="text/css">
	.st0{fill:#F75F5F;}
</style>
<path class="st0" d="M315,5v75H5V5H315 M320,0H0v85h320V0z"/>
<g>
	<path class="st0" d="M43.1,65.5H37v-19c-2.7,0.3-5.3,0.6-7.2,0.9l-1.1-5.8c0.8,0,1.7-0.1,2.8-0.1c1.3-1.7,2.6-3.4,3.8-5
		c-1.7-2.1-3.8-4.3-6.1-6.3l3.2-4.2c0.3,0.2,0.5,0.4,0.8,0.7c1.6-2.6,3.1-5.3,4-7.3l5.4,2.2c-1.4,2.6-3.4,5.8-5.6,8.8
		c0.5,0.5,0.9,1,1.4,1.5c2-3,3.7-5.8,5-8.1l5.5,2.5c-2.7,4.2-6.4,9.5-10.5,14.6c1.6-0.1,3.3-0.2,4.7-0.4c-0.5-1.1-1.1-2.2-1.8-3.2
		L46,35c2,3.1,3.5,6.5,4.3,9.1c3-1.4,5.7-3.3,8-5.4c-1.1-1.3-2.1-2.8-3.1-4.2c-0.8,1-1.6,2-2.5,2.9l-5.2-3.5c4.1-3.7,7.2-8.6,9-14.4
		l5.7,1.5c-0.2,0.9-0.5,1.8-0.9,2.7h5.5H68h0.6L73,25c-1.5,5.2-3.8,9.7-6.9,13.6c3,2.6,6.3,4.6,9.8,6l-4,4.9
		c-3.5-1.7-6.8-3.9-9.8-6.7c-3.1,2.9-6.6,5.2-10.5,7l-3.5-4.1L45.4,47c-0.1-0.5-0.3-1-0.4-1.6l-1.9,0.3V65.5z M36.4,49.3
		c-0.3,4.8-1.2,9.4-2.6,13.1l-5.2-1.8c1.4-3.5,2.3-7.8,2.5-12.1L36.4,49.3z M48.7,48c1.1,3.4,1.8,6.9,2,9.6l-5.3,1.3
		c-0.2-2.8-0.9-6.4-1.9-9.6C45.3,48.8,47,48.4,48.7,48z M55.2,52.9c7.1,2.3,12.9,4.9,17.3,7.7l-4.2,4.9c-4.2-3-9.9-5.7-16.7-8.1
		L55.2,52.9z M60.6,45.2c3.5,1.8,6.3,3.6,8.4,5.7l-4.5,3.8c-1.8-2-4.4-3.9-7.6-5.8L60.6,45.2z M62.2,34.5c1.2-1.7,2.2-3.5,3.1-5.4
		h-6.3l-0.1,0.2C59.7,31.2,60.9,32.9,62.2,34.5z"/>
	<path class="st0" d="M98.5,65.4c-1.7,0.2-6,0.2-8.8,0.1l-1.5-6.7c2.4,0.2,5.9,0.2,7,0.1c1-0.1,1.4-0.6,1.4-1.6V34.8h3.3
		c2.7-2.1,5.3-4.5,7.7-6.8H80.3v-5.9h32.2h1.8h1.3l4.7,2.9c-4.5,4.6-10.8,10.1-16.9,14.8v18.9C103.4,62.7,102.1,64.8,98.5,65.4z"/>
	<path class="st0" d="M134.8,21.5c-0.8,10.4-1,20.1-1,24.6c0,8.2,2.5,11.1,8.6,11.1c5.8,0,9.8-3,13.1-13l6.5,3.2
		c-5,13.1-11.5,16.6-19.7,16.6c-10.5,0-15.2-6-15.2-17.7c0-4.6,0.3-14.3,0.4-24.7H134.8z"/>
	<path class="st0" d="M182.4,36.8l-0.1-4.7h-14.9v-6h14.7c0-1.9,0-3.7,0-5.2h7c0,1.5,0,3.3,0,5.2h14.2v6h-14.2c0,1.5,0,3.1,0.1,4.7
		h13.2v6h-13.1c0,2.3,0.1,4.5,0.2,6.3c5.1,1.9,10,4.8,14.1,8l-4.4,5.2c-2.8-2.6-6.2-5-9.7-6.7c-0.5,5.8-3.5,8.5-11.1,8.5
		c-7.7,0-11.8-4-11.8-8.5c0-4.9,4.1-8.7,12-8.7c1.3,0,2.7,0.1,4,0.3l-0.1-4.4h-14.1v-6H182.4z M178.3,52.5c-3.7,0-5.5,1.2-5.5,3
		c0,1.6,1.7,2.8,5.2,2.8c3.9,0,4.9-1.1,4.9-5.2v0C181.3,52.7,179.7,52.5,178.3,52.5z"/>
	<path class="st0" d="M219.4,21.5c-0.8,10.4-1,20.1-1,24.6c0,8.2,2.5,11.1,8.6,11.1c5.8,0,9.8-3,13.1-13l6.5,3.2
		C241.5,60.4,235,64,226.8,64c-10.5,0-15.2-6-15.2-17.7c0-4.6,0.3-14.3,0.4-24.7H219.4z"/>
	<path class="st0" d="M260.3,26.8c0.2-2,0.4-3.9,0.5-5.8l7,0.3c-0.2,1.8-0.4,3.6-0.7,5.4h13.1v6.2h-14.1c-2.2,11.7-5.7,23.4-9.8,31
		l-6.3-3.2c4-6.9,7.3-17.4,9.2-27.9h-7.8v-6.2H260.3z M276.3,50.3c-0.9,1.7-1.3,3-1.3,4.1c0,2,3.5,2.6,8.6,2.6
		c2.4,0,5.1-0.2,7.8-0.7v6.3c-2.7,0.3-5.3,0.4-7.8,0.4c-8.8,0-15-1.9-15-6.8c0-1.9,0.6-4.1,2-6.9L276.3,50.3z M290.7,42.1
		c-1.9-0.2-4.2-0.3-6.7-0.3c-4,0-8.7,0.3-12.3,0.8l-0.4-6c3.7-0.4,9-0.6,13.3-0.6c2.3,0,4.4,0,6.1,0.1V42.1z"/>
</g>
</svg>