<svg version="1.1" xmlns="http://www.w3.org/2000/svg" xmlns:xlink="http://www.w3.org/1999/xlink" x="0px" y="0px" viewBox="0 0 200 85" style="enable-background:new 0 0 200 85;" xml:space="preserve" width="200" height="85">
<style type="text/css">
	.st0{fill:#F75F5F;}
</style>
<path class="st0" d="M195,5v75H5V5H195 M200,0H0v85h200V0z"/>
<g>
	<path class="st0" d="M33.9,30.4v7.2h24V27.3H25.9v-6.1h39v22.6h-31v8.6c0,4.6,1.4,5.5,6.2,5.7c4.7,0.1,11.6,0.1,16.5,0
		c4.6-0.1,5.2-0.6,5.5-5.7l7,1.3c-1.2,9.7-2.7,11-12,11.2c-5.3,0.1-12.3,0.1-17.5,0c-9.8-0.2-12.6-2.5-12.6-12.3v-22H33.9z"/>
	<path class="st0" d="M88.1,66.3h-6.4V46.8c-2.7,0.4-5.3,0.6-7.3,0.9l-1.2-6c0.8-0.1,1.7-0.1,2.8-0.2c1.4-1.7,2.7-3.5,4-5.3
		c-1.7-2.1-3.9-4.5-6.2-6.4l3.4-4.3c0.3,0.3,0.6,0.5,0.9,0.7c1.7-2.7,3.2-5.4,4.1-7.5l5.4,2.2c-1.4,2.7-3.5,5.9-5.7,9
		c0.5,0.6,1,1.1,1.5,1.6c2-3,3.8-5.9,5-8.2l5.6,2.5v-0.4h10.6v-6.8h6.5v6.8h10.4v5.9H111v5.4h9.1v5.9H95.6v-5.9h8.9v-5.4H93.8v-5.5
		c-2.8,4.4-6.7,9.9-11,15.2c1.8-0.1,3.7-0.3,5.4-0.4c-0.6-1.2-1.4-2.4-2.1-3.6l4.8-2.5c2.4,3.5,4.2,7.4,5.2,10.3
		c-1.7,0.9-3.4,1.7-5,2.5c-0.2-0.6-0.4-1.2-0.6-1.8c-0.8,0.1-1.6,0.2-2.4,0.3V66.3z M81.2,49.6c-0.4,4.9-1.3,9.7-2.7,13.5l-5.3-1.8
		c1.4-3.6,2.3-8.1,2.6-12.5L81.2,49.6z M93.7,48.4c1.2,3.5,1.9,7.3,2.2,10.1l-5.5,1.3c-0.2-2.9-0.9-6.7-1.9-10
		C90.3,49.2,92,48.8,93.7,48.4z M102.4,64.8v1.6h-6.2V45.9h23.3v20.4H113v-1.5L102.4,64.8z M113,58.9v-7.1h-10.6v7.1H113z"/>
	<path class="st0" d="M155.7,49.1c4.5,4.9,11.4,8.3,18.4,10.1l-4.2,5.6c-6.2-2.1-12.2-5.5-16.9-10v11.4h-6.9V54.9
		c-4.7,4.5-10.7,8-16.5,10.3l-4.1-5.3c6.7-2.1,13.6-5.8,18.1-10.8h-13V31.8h15.5v-3.3h-20.2V23h20.2v-4.3h6.9V23h20.7v5.6H153v3.3
		H169v17.3H155.7L155.7,49.1z M137.1,43.5h9v-6h-9V43.5z M162.2,43.5v-6H153v6H162.2z"/>
</g>
</svg>