<svg version="1.1" xmlns="http://www.w3.org/2000/svg" xmlns:xlink="http://www.w3.org/1999/xlink" x="0px" y="0px" viewBox="0 0 200 85" style="enable-background:new 0 0 200 85;" xml:space="preserve" width="200" height="85">
<style type="text/css">
	.st0{fill:#F75F5F;}
</style>
<path class="st0" d="M56.5,59c5.3,0,6.1-1.3,6.9-8.8c1.9,1.1,4,1.9,6.2,2.4c-1.2,9.7-3.4,12.5-12.8,12.5h-17c-9.9,0-12.9-2-12.9-9.7
	V31.4h6.3v7h23.3v-11H24.8v-6h38v25.4h-6.4v-2.5H33.1v10.9c0,3.2,0.9,3.7,6.6,3.7H56.5z"/>
<path class="st0" d="M87.4,33.9c1.1-1.7,2.2-3.6,3.1-5.4l5.4,3.5c-2.9,4.8-6.3,9.3-10,13.4l8.8-1.3c0,1.8,0.1,3.5,0.4,5.2
	c-13.9,2.5-16.2,3.1-17.7,3.9c-0.5-2-1.2-4-2-5.8c1.4-0.3,2.5-1.4,4.3-3.2c1.4-1.5,2.8-3.1,4-4.8c-4.6,0.5-5.9,0.8-6.7,1.2
	c-0.6-2-1.3-4.1-2.1-6c1.1-0.3,2-1.3,3.1-2.9c2.7-4.1,4.9-8.6,6.5-13.2l6.4,2.6c-2.1,4.6-4.7,9-7.7,13.1L87.4,33.9z M75.3,58.2
	c5-0.7,12.6-2.1,19.8-3.4l0.5,5.7c-6.6,1.4-13.8,2.9-19.2,4L75.3,58.2z M112.2,30.7v5.6h9.4v5.8H96.4v-5.8h9.4v-5.6H95v-5.9h10.7
	v-6.3h6.4v6.3h10.7v5.9H112.2z M97.5,45.9h23.1v20.4h-6.3v-2h-10.9v2.2h-6V45.9z M103.5,51.3v7.4h10.9v-7.4H103.5z"/>
<path class="st0" d="M157.7,49.5c5,4.7,11,8.3,17.5,10.5c-1.7,1.6-3.2,3.4-4.4,5.4c-6.3-2.8-11.9-6.8-16.6-11.8v12.9h-6.4V54.1
	c-4.7,4.8-10.3,8.6-16.5,11.2c-1.2-1.9-2.6-3.6-4.2-5.1c6.5-2.3,12.5-6,17.5-10.7h-12.1V33h15.3v-4h-18.6v-5.7h18.6v-4.7h6.4v4.7
	h18.8V29h-18.8v4h15.9v16.5H157.7z M138.5,44.1h9.3v-5.8h-9.3V44.1z M154.2,38.4v5.8h9.6v-5.8L154.2,38.4z"/>
<path class="st0" d="M195,5v75H5V5H195 M200,0H0v85h200V0z"/>
</svg>