<svg version="1.1" xmlns="http://www.w3.org/2000/svg" xmlns:xlink="http://www.w3.org/1999/xlink" x="0px" y="0px" viewBox="0 0 320 85" style="enable-background:new 0 0 320 85;" xml:space="preserve" width="320" height="85">
<style type="text/css">
	.st0{fill:#F75F5F;}
</style>
<path class="st0" d="M315,5v75H5V5H315 M320,0H0v85h320V0z"/>
<path class="st0" d="M27.9,42c0-10.5,3.9-20.9,19.8-20.9c3,0,6,0.4,8.9,1.1l-1.2,6.9c-2.4-0.8-5-1.2-7.5-1.2
	c-8,0-11.8,5.1-11.8,14.2c0,8.6,4.3,13,12,13c2.7,0,5.4-0.4,8-1.2l0.8,7c-2.9,0.8-6,1.1-9,1.1C32,62,27.9,52.4,27.9,42z"/>
<path class="st0" d="M89.1,46.1c0,7.5-3.2,16.4-14.8,16.4S59.6,53.6,59.6,46c0-7.2,3.2-15.9,14.8-15.9S89.1,38.8,89.1,46.1
	L89.1,46.1z M74.4,56.1c4.4,0,7.1-3,7.1-10.2c0-7-2.7-9.8-7.1-9.8S67.2,39,67.2,46C67.2,53.1,69.9,56.2,74.4,56.1L74.4,56.1z"/>
<path class="st0" d="M108.6,30.7c4.8,0,6.9,2,7.9,3.6c2.8-2.3,6.3-3.6,10-3.6c8.2,0,10,5.2,10,9.9v20.7h-7.3V42.5
	c0-3.4-1.4-5.8-5-5.8c-2.3,0.1-4.4,1-6.2,2.5c0.3,1.6,0.5,3.2,0.4,4.8v17.2h-7.2V42.5c0-3.6-1.4-5.8-5-5.8c-2.2,0.1-4.2,1-5.7,2.6
	v21.9h-7.6V38.1c0.1-2.2-0.2-4.3-0.7-6.4l6.8-0.9c0.5,1.2,0.8,2.4,1,3.6C102.3,32,105.4,30.7,108.6,30.7z"/>
<path class="st0" d="M157.6,30.4c8.3,0,11.9,6.3,11.9,15.3c0,8.9-3.4,16.3-12.8,16.3c-2.9,0-5.6-1.1-7.7-3.1v14.1h-7.3v-35
	c0.1-2.2-0.2-4.3-0.7-6.4l6.8-0.9c0.6,1.2,1,2.4,1.1,3.8C151.1,31.9,154.3,30.3,157.6,30.4L157.6,30.4z M148.8,47.6
	c0,1.7,0.1,3.4,0.4,5.1c1.4,2,3.7,3.2,6.2,3.1c5.1,0,6.5-4.5,6.5-10c0-5.2-1.5-9.2-5.9-9.2c-2.9,0-5.6,1.6-6.8,4.3
	c-0.3,1.4-0.4,2.9-0.4,4.4V47.6z"/>
<path class="st0" d="M181.3,61.3h-7.5V20.7l7.5-1.1V61.3z"/>
<path class="st0" d="M201.7,55.9c2.9,0,5.8-0.5,8.5-1.6l1.4,5.9c-3.3,1.3-6.8,2-10.4,1.9c-11.8,0-15.5-7.4-15.5-15.5
	c0-9.1,4.8-16.4,14.6-16.4c8.7,0,11.6,6.1,11.6,13.4V48H193C193.1,53,196.1,55.8,201.7,55.9L201.7,55.9z M199.4,36
	c-3.9,0-6,3.8-6.3,6.8h12c0-4-1.3-6.8-5.6-6.8H199.4z"/>
<path class="st0" d="M230.1,55.7v5.7l-3.2,0.2c-5.3,0.3-8.8-1.7-8.8-7.2V37.5h-4.6v-5.8h4.5v-6.6l7.3-1.9v8.5h5.9v5.8h-5.9v13.9
	c0,3.3,0.6,4.4,2.9,4.4H230.1z"/>
<path class="st0" d="M249.5,55.9c2.9,0,5.8-0.5,8.5-1.6l1.4,5.9c-3.3,1.3-6.9,2-10.4,1.9c-11.8,0-15.5-7.4-15.5-15.5
	c0-9.1,4.8-16.4,14.6-16.4c8.7,0,11.6,6.1,11.6,13.4V48h-18.9C241,53,243.9,55.8,249.5,55.9L249.5,55.9z M247.2,36
	c-4,0-6.1,3.8-6.3,6.8h12C253,38.8,251.7,36,247.2,36L247.2,36z"/>
<path class="st0" d="M275,62c-8.3,0-11.9-6.3-11.9-15.3c0-8.8,3.3-16.3,12.7-16.3c2.9,0,5.6,1.1,7.7,3V20.7l7.4-1.1v30.6
	c0,4.2,0.1,7.4,1.2,10.3l-6.4,1.2c-0.8-1.2-1.2-2.5-1.4-3.9C282.2,60.6,278.7,62.1,275,62L275,62z M283.9,44.9
	c0-1.7-0.1-3.4-0.4-5.1c-1.4-2-3.7-3.2-6.2-3.1c-5.1,0-6.5,4.5-6.5,10c0,5.2,1.5,9.2,5.9,9.2c2.9,0,5.5-1.6,6.8-4.3
	c0.3-1.4,0.4-2.9,0.4-4.4V44.9z"/>
</svg>