<svg xmlns="http://www.w3.org/2000/svg" width="10.51471" height="22.94116" viewBox="0 0 10.51471 22.94116"><title>tk_human</title><g id="レイヤー_2" data-name="レイヤー 2"><g id="人アイコン"><g id="おとな"><path d="M5.25732,0a5.25732,5.25732,0,1,0,5.25739,5.25732A5.25733,5.25733,0,0,0,5.25732,0Zm-1.5,5.64117c-.27612,0-.5-.44775-.5-1s.22388-1,.5-1,.5.44769.5,1S4.03351,5.64117,3.75732,5.64117Zm2.46484,1.0495a1.1242,1.1242,0,0,1-.96484.67529,1.1242,1.1242,0,0,1-.96484-.67529A.125.125,0,0,1,4.522,6.59155a.87423.87423,0,0,0,.73535.52441A.88432.88432,0,0,0,5.99268,6.592a.1249.1249,0,0,1,.22949.09863Zm.53516-1.0495c-.27612,0-.5-.44775-.5-1s.22388-1,.5-1,.5.44769.5,1S7.03351,5.64117,6.75732,5.64117Z" fill="#fff"/><path d="M5.25735,9.55881C.452,9.55881.01419,22.255.01419,22.255c-.07016.37739.12684.68617.43777.68617h9.61078c.31094,0,.50794-.30878.43777-.68617C10.50052,22.255,10.06274,9.55881,5.25735,9.55881Z" fill="#fff"/></g></g></g></svg>