<svg xmlns="http://www.w3.org/2000/svg" width="27.625" height="26.75" viewBox="0 0 27.625 26.75"><title>tk_human_u18_1</title><g id="レイヤー_2" data-name="レイヤー 2"><g id="人アイコン"><rect width="27.625" height="26.75" fill="none"/><g id="学生女"><path d="M12.375,11.25a5.5,5.5,0,1,0-7.66937,5.054c-.01013.00555-.0213.00952-.03137.0152a11.12041,11.12041,0,0,0,.585,1.68054c.42657.02045,1.24963.05774,1.61578.05884.36609-.0011,1.18921-.03839,1.61578-.05884a11.12635,11.12635,0,0,0,.585-1.68048c-.01013-.00568-.0213-.00958-.03149-.0152A5.50039,5.50039,0,0,0,12.375,11.25Zm-7.5-.38336c0-.55225.22388-1,.5-1s.5.44775.5,1-.22388,1-.5,1S4.875,11.41895,4.875,10.86664Zm3.66064,1.8277A2.117,2.117,0,0,1,6.875,13.3418a2.117,2.117,0,0,1-1.66064-.64746.12495.12495,0,0,1,.1958-.15527A1.87689,1.87689,0,0,0,6.875,13.0918a1.87689,1.87689,0,0,0,1.46484-.55273.12677.12677,0,0,1,.17529-.02A.12537.12537,0,0,1,8.53564,12.69434Zm-.16064-.8277c-.27612,0-.5-.44769-.5-1s.22388-1,.5-1,.5.44775.5,1S8.65112,11.86664,8.375,11.86664Z" fill="#fff"/><path d="M5.41748,19.21442c-.02032-.03448-.04047-.07037-.06073-.10559-.12854-.22321-.25568-.45685-.37836-.70483l-.02222-.04315c-.12225-.24963-.23621-.51129-.34363-.77893-.02478-.06189-.04858-.12439-.07233-.187-.10181-.26837-.19592-.54144-.27325-.8197a6.792,6.792,0,0,0-1.985,2.35364,13.78185,13.78185,0,0,0,3.54022.9306L5.822,19.85925C5.68994,19.66339,5.55426,19.44678,5.41748,19.21442Z" fill="#fff"/><path d="M11.46808,18.92889a6.79115,6.79115,0,0,0-1.985-2.35364c-.07733.27826-.17139.55127-.27325.81964-.02374.06262-.04749.12512-.07227.187-.10748.26764-.22137.5293-.34363.77893l-.02228.04315c-.12268.248-.24982.48163-.37836.70483-.02026.03522-.04041.07111-.06073.10559-.13672.23236-.2724.449-.40448.64484l-.00012.00018A13.78337,13.78337,0,0,0,11.46808,18.92889Z" fill="#fff"/><path d="M11.594,19.16693a14.95468,14.95468,0,0,1-3.85852.9693l-.00006.00012c-.098.1358-.1925.2616-.27936.36908a13.81358,13.81358,0,0,0,4.28046-1.05121C11.69049,19.35748,11.64258,19.262,11.594,19.16693Z" fill="#fff"/><path d="M2.01349,19.45416A13.8146,13.8146,0,0,0,6.294,20.50543c-.08679-.10748-.18134-.23328-.2793-.36908l-.00006-.00012a14.959,14.959,0,0,1-3.85864-.9693C2.10742,19.262,2.05951,19.35748,2.01349,19.45416Z" fill="#fff"/><path d="M13.35748,26.186a21.14244,21.14244,0,0,0-1.438-6.32568,13.67521,13.67521,0,0,1-4.19733,1.06958,3.40783,3.40783,0,0,1,2.39526,4.23053c-1.52728.08179-3.04846-1.71368-3.19916-3.66022H6.83173c-.1507,1.94653-1.67187,3.742-3.1991,3.66022a3.40775,3.40775,0,0,1,2.3952-4.23053,13.67114,13.67114,0,0,1-4.19733-1.06964A21.143,21.143,0,0,0,.39252,26.186c-.08673.31018.15686.564.54126.564H12.81622C13.20062,26.75,13.44421,26.49615,13.35748,26.186Z" fill="#fff"/><path d="M8.26111,18.46417c-.23163.00909-1.04047.04-1.386.041-.34564-.001-1.15448-.03192-1.386-.041a10.12085,10.12085,0,0,0,1.386,2.051A10.12347,10.12347,0,0,0,8.26111,18.46417Z" fill="#fff"/></g><g id="学生男"><path d="M26.375,11.25a5.5,5.5,0,1,0-7.66937,5.054c-.01013.00555-.0213.00952-.03137.0152a11.12041,11.12041,0,0,0,.585,1.68054c.42657.02045,1.24963.05774,1.61578.05884.36609-.0011,1.18921-.03839,1.61578-.05884a11.12635,11.12635,0,0,0,.585-1.68048c-.01013-.00568-.0213-.00958-.03149-.0152A5.50039,5.50039,0,0,0,26.375,11.25Zm-7.5-.38336c0-.55225.22388-1,.5-1s.5.44775.5,1-.22388,1-.5,1S18.875,11.41895,18.875,10.86664Zm3.66064,1.8277a2.117,2.117,0,0,1-1.66064.64746,2.117,2.117,0,0,1-1.66064-.64746.12495.12495,0,0,1,.1958-.15527,1.87689,1.87689,0,0,0,1.46484.55273,1.87689,1.87689,0,0,0,1.46484-.55273.12682.12682,0,0,1,.17529-.02A.12537.12537,0,0,1,22.53564,12.69434Zm-.16064-.8277c-.27612,0-.5-.44769-.5-1s.22388-1,.5-1,.5.44775.5,1S22.65112,11.86664,22.375,11.86664Z" fill="#fff"/><path d="M19.41748,19.21442c-.02032-.03448-.04047-.07037-.06073-.10559-.12854-.22321-.25568-.45685-.37836-.70483l-.02222-.04315c-.12225-.24963-.23621-.51129-.34363-.77893-.02478-.06189-.04858-.12439-.07233-.187-.10181-.26837-.19592-.54144-.27325-.8197a6.792,6.792,0,0,0-1.985,2.35364,13.78185,13.78185,0,0,0,3.54022.9306l-.00012-.00018C19.68994,19.66339,19.55426,19.44678,19.41748,19.21442Z" fill="#fff"/><path d="M27.35748,26.186a21.14478,21.14478,0,0,0-1.43774-6.32526A13.95305,13.95305,0,0,1,21.50989,20.951L21.395,21.686a.11959.11959,0,0,1-.13.104h-.78a.11959.11959,0,0,1-.13-.104l-.11487-.73492a13.94993,13.94993,0,0,1-4.40979-1.09033A21.14373,21.14373,0,0,0,14.39252,26.186c-.08673.31018.15686.564.54126.564H26.81622C27.20062,26.75,27.44421,26.49615,27.35748,26.186Zm-5.51587-1.042-.89307.893a.10429.10429,0,0,1-.14709,0l-.89307-.893a.22792.22792,0,0,1-.05646-.17615l.4859-2.91522a.12739.12739,0,0,1,.12109-.1026h.83215a.12739.12739,0,0,1,.12109.1026l.4859,2.91522A.22792.22792,0,0,1,21.84161,25.144Z" fill="#fff"/><path d="M25.46808,18.92889a6.79115,6.79115,0,0,0-1.985-2.35364c-.07733.27826-.17139.55127-.27325.81964-.02374.06262-.04749.12512-.07227.187-.10748.26764-.22137.5293-.34363.77893l-.02228.04315c-.12268.248-.24982.48163-.37836.70483-.02026.03522-.04041.07111-.06073.10559-.13672.23236-.2724.449-.40448.64484l-.00012.00018A13.78337,13.78337,0,0,0,25.46808,18.92889Z" fill="#fff"/><path d="M25.594,19.16693a14.95468,14.95468,0,0,1-3.85852.9693l-.00006.00012c-.098.1358-.1925.2616-.27936.36908a13.81358,13.81358,0,0,0,4.28046-1.05121C25.69049,19.35748,25.64258,19.262,25.594,19.16693Z" fill="#fff"/><path d="M22.26111,18.46417c-.23163.00909-1.04047.04-1.386.041-.34564-.001-1.15448-.03192-1.386-.041a10.12085,10.12085,0,0,0,1.386,2.051A10.12347,10.12347,0,0,0,22.26111,18.46417Z" fill="#fff"/><path d="M16.01349,19.45416A13.8146,13.8146,0,0,0,20.294,20.50543c-.08679-.10748-.18134-.23328-.2793-.36908l-.00006-.00012a14.959,14.959,0,0,1-3.85864-.9693C16.10742,19.262,16.05951,19.35748,16.01349,19.45416Z" fill="#fff"/></g></g></g></svg>