<svg xmlns="http://www.w3.org/2000/svg" width="30.00001" height="22.94116" viewBox="0 0 30.00001 22.94116"><title>tk_human_box</title><g id="レイヤー_2" data-name="レイヤー 2"><g id="人アイコン"><g id="おとな"><path d="M24.74268,0A5.25732,5.25732,0,1,0,30,5.25732,5.25734,5.25734,0,0,0,24.74268,0Zm-1.5,5.64117c-.27618,0-.5-.44775-.5-1s.22382-1,.5-1,.5.44769.5,1S23.5188,5.64117,23.24268,5.64117Zm2.46484,1.0495a1.02692,1.02692,0,0,1-1.92969,0,.125.125,0,0,1,.22949-.09912.87423.87423,0,0,0,.73535.52441A.88432.88432,0,0,0,25.478,6.592a.1249.1249,0,0,1,.22949.09863Zm.53516-1.0495c-.27618,0-.5-.44775-.5-1s.22382-1,.5-1,.5.44769.5,1S26.5188,5.64117,26.24268,5.64117Z" fill="#fff"/><path d="M29.98584,22.255S29.548,9.55878,24.74268,9.55878,19.49951,22.255,19.49951,22.255c-.07019.37738.12683.68616.43774.68616H29.548C29.85895,22.94116,30.056,22.63239,29.98584,22.255ZM23.16956,11.55621a.45511.45511,0,1,1,.45514-.45514A.45508.45508,0,0,1,23.16956,11.55621Zm1.00916.53424a.45511.45511,0,1,1,.45508-.45508A.45507.45507,0,0,1,24.17871,12.09045Zm1.12787,0a.45511.45511,0,1,1,.45508-.45508A.45507.45507,0,0,1,25.30658,12.09045Zm1.00916-.53424a.45511.45511,0,1,1,.45508-.45514A.45513.45513,0,0,1,26.31573,11.55621Z" fill="#fff"/></g><g id="こども"><path d="M15.07281,8.262a3.364,3.364,0,1,0,3.364,3.364A3.364,3.364,0,0,0,15.07281,8.262Zm-1.025,3.61664c-.25073,0-.454-.375-.454-.83752s.20331-.83746.454-.83746.4541.37494.4541.83746S14.29858,11.87866,14.04779,11.87866Zm2.05,0c-.25079,0-.454-.375-.454-.83752s.20325-.83746.454-.83746.454.37494.454.83746S16.34857,11.87866,16.09778,11.87866Z" fill="#fff"/><path d="M15.07279,14.37833c-3.07478,0-3.35489,8.12378-3.35489,8.12378-.04489.24148.08116.43905.28011.43905h6.14956c.199,0,.325-.19757.28011-.43905C18.42769,22.50211,18.14757,14.37833,15.07279,14.37833Z" fill="#fff"/></g><g id="おとな-2" data-name="おとな"><path d="M5.25732,0a5.25732,5.25732,0,1,0,5.25739,5.25732A5.25733,5.25733,0,0,0,5.25732,0Zm-1.5,3.64117c.27618,0,.5.44769.5,1s-.22382,1-.5,1-.5-.44775-.5-1S3.4812,3.64117,3.75732,3.64117Zm-.45123,4.175C3.24554,6.187,4.42114,6.01782,5.25684,6.05823,5.34766,7.31036,4.08148,7.79889,3.30609,7.81616ZM5.25787,6.05823c.83569-.04041,2.01129.12878,1.95074,1.75793C6.43323,7.79889,5.16705,7.31036,5.25787,6.05823Zm1.49945-.41705c-.27612,0-.5-.44775-.5-1s.22388-1,.5-1,.5.44769.5,1S7.03351,5.64117,6.75732,5.64117Z" fill="#fff"/><path d="M5.25735,9.55881C.452,9.55881.01419,22.255.01419,22.255c-.07016.37739.12684.68617.43777.68617h9.61078c.31094,0,.50794-.30878.43777-.68617C10.50052,22.255,10.06274,9.55881,5.25735,9.55881Z" fill="#fff"/></g></g></g></svg>