<svg version="1.1" xmlns="http://www.w3.org/2000/svg" xmlns:xlink="http://www.w3.org/1999/xlink" x="0px" y="0px" viewBox="0 0 800 800" style="enable-background:new 0 0 800 800;" xml:space="preserve" width="800" height="800">
<style type="text/css">
	.st0{fill:#10BCBC;}
	.st1{fill:#FF87A6;}
	.st2{fill:#FFFFFF;}
</style>
<rect class="st0" width="800" height="800"/>
<polygon class="st1" points="96,96 400.5,400 701.4,99.7 "/>
<path class="st2" d="M704.2,69.5H95.8c-14.5,0-26.2,11.8-26.3,26.3v608.4c0,14.5,11.8,26.2,26.3,26.3h608.4
	c14.5,0,26.2-11.8,26.3-26.3V95.8C730.5,81.3,718.7,69.5,704.2,69.5z M400,375.1L139.7,114.9h520.6L400,375.1z M685.2,149v536.1
	H114.8V149.1l265.3,265.3c11,10.9,28.7,10.9,39.7,0L685.2,149z"/>
</svg>